<?xml version="1.0" encoding="UTF-8"?>
<!DOCTYPE score-partwise PUBLIC "-//Recordare//DTD MusicXML 2.0 Partwise//EN" "http://www.musicxml.org/dtds/partwise.dtd">
<score-partwise>
  <identification>
    <encoding>
      <software>MuseScore 1.3</software>
      <encoding-date>2015-02-16</encoding-date>
      </encoding>
    </identification>
  <defaults>
    <scaling>
      <millimeters>7.056</millimeters>
      <tenths>40</tenths>
      </scaling>
    <page-layout>
      <page-height>1583.9</page-height>
      <page-width>1223.92</page-width>
      <page-margins type="even">
        <left-margin>56.6893</left-margin>
        <right-margin>56.6893</right-margin>
        <top-margin>56.6893</top-margin>
        <bottom-margin>113.379</bottom-margin>
        </page-margins>
      <page-margins type="odd">
        <left-margin>56.6893</left-margin>
        <right-margin>56.6893</right-margin>
        <top-margin>56.6893</top-margin>
        <bottom-margin>113.379</bottom-margin>
        </page-margins>
      </page-layout>
    </defaults>
  <credit page="1">
    <credit-words default-x="611.961" default-y="1527.21" font-size="24" justify="center" valign="top">Meie Koome Kangast</credit-words>
    </credit>
  <part-list>
    <score-part id="P1">
      <part-name></part-name>
      <score-instrument id="P1-I3">
        <instrument-name></instrument-name>
        </score-instrument>
      <midi-instrument id="P1-I3">
        <midi-channel>1</midi-channel>
        <midi-program>53</midi-program>
        <volume>78.7402</volume>
        <pan>0</pan>
        </midi-instrument>
      </score-part>
    </part-list>
  <part id="P1">
    <measure number="1" width="264.91">
      <print>
        <system-layout>
          <system-margins>
            <left-margin>2.50</left-margin>
            <right-margin>-0.00</right-margin>
            </system-margins>
          <top-system-distance>180.00</top-system-distance>
          </system-layout>
        </print>
      <attributes>
        <divisions>2</divisions>
        <key>
          <fifths>0</fifths>
          <mode>major</mode>
          </key>
        <time>
          <beats>3</beats>
          <beat-type>4</beat-type>
          </time>
        <clef>
          <sign>G</sign>
          <line>2</line>
          </clef>
        </attributes>
      <note default-x="90.88" default-y="-35.00">
        <pitch>
          <step>F</step>
          <octave>4</octave>
          </pitch>
        <duration>1</duration>
        <voice>1</voice>
        <type>eighth</type>
        <stem>up</stem>
        <beam number="1">begin</beam>
        <lyric number="1">
          <syllabic>begin</syllabic>
          <text>Me</text>
          </lyric>
        <lyric number="2">
          <syllabic>single</syllabic>
          <text>Nii</text>
          </lyric>
        <lyric number="3">
          <syllabic>single</syllabic>
          <text>Nii</text>
          </lyric>
        </note>
      <note default-x="123.45" default-y="-35.00">
        <pitch>
          <step>F</step>
          <octave>4</octave>
          </pitch>
        <duration>1</duration>
        <voice>1</voice>
        <type>eighth</type>
        <stem>up</stem>
        <beam number="1">end</beam>
        <lyric number="1">
          <syllabic>end</syllabic>
          <text>ie</text>
          </lyric>
        </note>
      <note default-x="159.11" default-y="-50.00">
        <pitch>
          <step>C</step>
          <octave>4</octave>
          </pitch>
        <duration>2</duration>
        <voice>1</voice>
        <type>quarter</type>
        <stem>up</stem>
        <lyric number="1">
          <syllabic>begin</syllabic>
          <text>koo</text>
          </lyric>
        <lyric number="2">
          <syllabic>begin</syllabic>
          <text>loo</text>
          </lyric>
        <lyric number="3">
          <syllabic>begin</syllabic>
          <text>koo</text>
          </lyric>
        </note>
      <note default-x="211.21" default-y="-35.00">
        <pitch>
          <step>F</step>
          <octave>4</octave>
          </pitch>
        <duration>2</duration>
        <voice>1</voice>
        <type>quarter</type>
        <stem>up</stem>
        <lyric number="1">
          <syllabic>end</syllabic>
          <text>me</text>
          </lyric>
        <lyric number="2">
          <syllabic>end</syllabic>
          <text>di</text>
          </lyric>
        <lyric number="3">
          <syllabic>end</syllabic>
          <text>ti</text>
          </lyric>
        </note>
      </measure>
    <measure number="2" width="142.69">
      <note default-x="26.97" default-y="-35.00">
        <pitch>
          <step>F</step>
          <octave>4</octave>
          </pitch>
        <duration>2</duration>
        <voice>1</voice>
        <type>quarter</type>
        <stem>up</stem>
        <lyric number="1">
          <syllabic>begin</syllabic>
          <text>kang</text>
          </lyric>
        <lyric number="2">
          <syllabic>begin</syllabic>
          <text>nii</text>
          </lyric>
        <lyric number="3">
          <syllabic>begin</syllabic>
          <text>kang</text>
          </lyric>
        </note>
      <note default-x="71.28" default-y="-25.00">
        <pitch>
          <step>A</step>
          <octave>4</octave>
          </pitch>
        <duration>4</duration>
        <voice>1</voice>
        <type>half</type>
        <stem>up</stem>
        <lyric number="1">
          <syllabic>end</syllabic>
          <text>ast</text>
          </lyric>
        <lyric number="2">
          <syllabic>end</syllabic>
          <text>ed,</text>
          </lyric>
        <lyric number="3">
          <syllabic>end</syllabic>
          <text>ast,</text>
          </lyric>
        </note>
      </measure>
    <measure number="3" width="224.46">
      <note default-x="21.46" default-y="-30.00">
        <pitch>
          <step>G</step>
          <octave>4</octave>
          </pitch>
        <duration>2</duration>
        <voice>1</voice>
        <type>quarter</type>
        <stem>up</stem>
        <lyric number="1">
          <syllabic>begin</syllabic>
          <text>vill</text>
          </lyric>
        <lyric number="2">
          <syllabic>begin</syllabic>
          <text>nel</text>
          </lyric>
        <lyric number="3">
          <syllabic>single</syllabic>
          <text>sini</text>
          </lyric>
        </note>
      <note default-x="88.59" default-y="-50.00">
        <pitch>
          <step>C</step>
          <octave>4</octave>
          </pitch>
        <duration>2</duration>
        <voice>1</voice>
        <type>quarter</type>
        <stem>up</stem>
        <lyric number="1">
          <syllabic>middle</syllabic>
          <text>a</text>
          </lyric>
        <lyric number="2">
          <syllabic>end</syllabic>
          <text>jad</text>
          </lyric>
        <lyric number="3">
          <syllabic>single</syllabic>
          <text>musta</text>
          </lyric>
        </note>
      <note default-x="155.73" default-y="-40.00">
        <pitch>
          <step>E</step>
          <octave>4</octave>
          </pitch>
        <duration>2</duration>
        <voice>1</voice>
        <type>quarter</type>
        <stem>up</stem>
        <lyric number="1">
          <syllabic>end</syllabic>
          <text>sest</text>
          </lyric>
        <lyric number="2">
          <syllabic>single</syllabic>
          <text>ja</text>
          </lyric>
        <lyric number="3">
          <syllabic>single</syllabic>
          <text>valgest</text>
          </lyric>
        </note>
      </measure>
    <measure number="4" width="139.03">
      <note default-x="25.15" default-y="-30.00">
        <pitch>
          <step>G</step>
          <octave>4</octave>
          </pitch>
        <duration>2</duration>
        <voice>1</voice>
        <type>quarter</type>
        <stem>up</stem>
        <lyric number="1">
          <syllabic>begin</syllabic>
          <text>lõng</text>
          </lyric>
        <lyric number="2">
          <syllabic>begin</syllabic>
          <text>vii</text>
          </lyric>
        <lyric number="3">
          <syllabic>begin</syllabic>
          <text>lõng</text>
          </lyric>
        </note>
      <note default-x="68.33" default-y="-35.00">
        <pitch>
          <step>F</step>
          <octave>4</octave>
          </pitch>
        <duration>4</duration>
        <voice>1</voice>
        <type>half</type>
        <stem>up</stem>
        <lyric number="1">
          <syllabic>end</syllabic>
          <text>ast</text>
          </lyric>
        <lyric number="2">
          <syllabic>end</syllabic>
          <text>ed.</text>
          </lyric>
        <lyric number="3">
          <syllabic>end</syllabic>
          <text>ast.</text>
          </lyric>
        </note>
      </measure>
    <measure number="5" width="194.27">
      <note default-x="20.24" default-y="-35.00">
        <pitch>
          <step>F</step>
          <octave>4</octave>
          </pitch>
        <duration>1</duration>
        <voice>1</voice>
        <type>eighth</type>
        <stem>up</stem>
        <beam number="1">begin</beam>
        <lyric number="1">
          <syllabic>begin</syllabic>
          <text>Me</text>
          </lyric>
        <lyric number="2">
          <syllabic>single</syllabic>
          <text>Nii</text>
          </lyric>
        <lyric number="3">
          <syllabic>single</syllabic>
          <text>Nii</text>
          </lyric>
        </note>
      <note default-x="20.24" default-y="-25.00">
        <chord/>
        <pitch>
          <step>A</step>
          <octave>4</octave>
          </pitch>
        <duration>1</duration>
        <voice>1</voice>
        <type>eighth</type>
        <stem>up</stem>
        </note>
      <note default-x="52.80" default-y="-35.00">
        <pitch>
          <step>F</step>
          <octave>4</octave>
          </pitch>
        <duration>1</duration>
        <voice>1</voice>
        <type>eighth</type>
        <stem>up</stem>
        <beam number="1">end</beam>
        <lyric number="1">
          <syllabic>end</syllabic>
          <text>ie</text>
          </lyric>
        </note>
      <note default-x="52.80" default-y="-25.00">
        <chord/>
        <pitch>
          <step>A</step>
          <octave>4</octave>
          </pitch>
        <duration>1</duration>
        <voice>1</voice>
        <type>eighth</type>
        <stem>up</stem>
        </note>
      <note default-x="88.46" default-y="-50.00">
        <pitch>
          <step>C</step>
          <octave>4</octave>
          </pitch>
        <duration>2</duration>
        <voice>1</voice>
        <type>quarter</type>
        <stem>up</stem>
        <lyric number="1">
          <syllabic>begin</syllabic>
          <text>koo</text>
          </lyric>
        <lyric number="2">
          <syllabic>begin</syllabic>
          <text>loo</text>
          </lyric>
        <lyric number="3">
          <syllabic>begin</syllabic>
          <text>koo</text>
          </lyric>
        </note>
      <note default-x="88.46" default-y="-25.00">
        <chord/>
        <pitch>
          <step>A</step>
          <octave>4</octave>
          </pitch>
        <duration>2</duration>
        <voice>1</voice>
        <type>quarter</type>
        <stem>up</stem>
        </note>
      <note default-x="140.57" default-y="-35.00">
        <pitch>
          <step>F</step>
          <octave>4</octave>
          </pitch>
        <duration>2</duration>
        <voice>1</voice>
        <type>quarter</type>
        <stem>up</stem>
        <lyric number="1">
          <syllabic>end</syllabic>
          <text>me</text>
          </lyric>
        <lyric number="2">
          <syllabic>end</syllabic>
          <text>di</text>
          </lyric>
        <lyric number="3">
          <syllabic>end</syllabic>
          <text>ti</text>
          </lyric>
        </note>
      <note default-x="140.57" default-y="-25.00">
        <chord/>
        <pitch>
          <step>A</step>
          <octave>4</octave>
          </pitch>
        <duration>2</duration>
        <voice>1</voice>
        <type>quarter</type>
        <stem>up</stem>
        </note>
      </measure>
    <measure number="6" width="142.69">
      <note default-x="26.97" default-y="-35.00">
        <pitch>
          <step>F</step>
          <octave>4</octave>
          </pitch>
        <duration>2</duration>
        <voice>1</voice>
        <type>quarter</type>
        <stem>up</stem>
        <lyric number="1">
          <syllabic>begin</syllabic>
          <text>kang</text>
          </lyric>
        <lyric number="2">
          <syllabic>begin</syllabic>
          <text>nii</text>
          </lyric>
        <lyric number="3">
          <syllabic>begin</syllabic>
          <text>kang</text>
          </lyric>
        </note>
      <note default-x="26.97" default-y="-25.00">
        <chord/>
        <pitch>
          <step>A</step>
          <octave>4</octave>
          </pitch>
        <duration>2</duration>
        <voice>1</voice>
        <type>quarter</type>
        <stem>up</stem>
        </note>
      <note default-x="71.28" default-y="-25.00">
        <pitch>
          <step>A</step>
          <octave>4</octave>
          </pitch>
        <duration>4</duration>
        <voice>1</voice>
        <type>half</type>
        <stem>down</stem>
        <lyric number="1">
          <syllabic>end</syllabic>
          <text>ast</text>
          </lyric>
        <lyric number="2">
          <syllabic>end</syllabic>
          <text>ed,</text>
          </lyric>
        <lyric number="3">
          <syllabic>end</syllabic>
          <text>ast,</text>
          </lyric>
        </note>
      <note default-x="71.28" default-y="-15.00">
        <chord/>
        <pitch>
          <step>C</step>
          <octave>5</octave>
          </pitch>
        <duration>4</duration>
        <voice>1</voice>
        <type>half</type>
        <stem>down</stem>
        </note>
      </measure>
    <measure number="7" width="330.53">
      <print new-system="yes">
        <system-layout>
          <system-margins>
            <left-margin>2.50</left-margin>
            <right-margin>0.00</right-margin>
            </system-margins>
          <system-distance>154.84</system-distance>
          </system-layout>
        </print>
      <note default-x="71.01" default-y="-30.00">
        <pitch>
          <step>G</step>
          <octave>4</octave>
          </pitch>
        <duration>2</duration>
        <voice>1</voice>
        <type>quarter</type>
        <stem>up</stem>
        <lyric number="1">
          <syllabic>begin</syllabic>
          <text>vill</text>
          </lyric>
        <lyric number="2">
          <syllabic>begin</syllabic>
          <text>nel</text>
          </lyric>
        <lyric number="3">
          <syllabic>single</syllabic>
          <text>sini</text>
          </lyric>
        </note>
      <note default-x="71.01" default-y="-20.00">
        <chord/>
        <pitch>
          <step>B</step>
          <octave>4</octave>
          </pitch>
        <duration>2</duration>
        <voice>1</voice>
        <type>quarter</type>
        <stem>up</stem>
        </note>
      <note default-x="156.98" default-y="-50.00">
        <pitch>
          <step>C</step>
          <octave>4</octave>
          </pitch>
        <duration>2</duration>
        <voice>1</voice>
        <type>quarter</type>
        <stem>up</stem>
        <lyric number="1">
          <syllabic>middle</syllabic>
          <text>a</text>
          </lyric>
        <lyric number="2">
          <syllabic>end</syllabic>
          <text>jad</text>
          </lyric>
        <lyric number="3">
          <syllabic>single</syllabic>
          <text>musta</text>
          </lyric>
        </note>
      <note default-x="156.98" default-y="-20.00">
        <chord/>
        <pitch>
          <step>B</step>
          <octave>4</octave>
          </pitch>
        <duration>2</duration>
        <voice>1</voice>
        <type>quarter</type>
        <stem>up</stem>
        </note>
      <note default-x="242.95" default-y="-40.00">
        <pitch>
          <step>E</step>
          <octave>4</octave>
          </pitch>
        <duration>2</duration>
        <voice>1</voice>
        <type>quarter</type>
        <stem>up</stem>
        <lyric number="1">
          <syllabic>end</syllabic>
          <text>sest</text>
          </lyric>
        <lyric number="2">
          <syllabic>single</syllabic>
          <text>ja</text>
          </lyric>
        <lyric number="3">
          <syllabic>single</syllabic>
          <text>valgest</text>
          </lyric>
        </note>
      <note default-x="242.95" default-y="-20.00">
        <chord/>
        <pitch>
          <step>B</step>
          <octave>4</octave>
          </pitch>
        <duration>2</duration>
        <voice>1</voice>
        <type>quarter</type>
        <stem>up</stem>
        </note>
      </measure>
    <measure number="8" width="209.45">
      <note default-x="39.05" default-y="-30.00">
        <pitch>
          <step>G</step>
          <octave>4</octave>
          </pitch>
        <duration>2</duration>
        <voice>1</voice>
        <type>quarter</type>
        <stem>up</stem>
        <lyric number="1">
          <syllabic>begin</syllabic>
          <text>lõng</text>
          </lyric>
        <lyric number="2">
          <syllabic>begin</syllabic>
          <text>vii</text>
          </lyric>
        <lyric number="3">
          <syllabic>begin</syllabic>
          <text>lõng</text>
          </lyric>
        </note>
      <note default-x="39.05" default-y="-20.00">
        <chord/>
        <pitch>
          <step>B</step>
          <octave>4</octave>
          </pitch>
        <duration>2</duration>
        <voice>1</voice>
        <type>quarter</type>
        <stem>up</stem>
        </note>
      <note default-x="103.97" default-y="-35.00">
        <pitch>
          <step>F</step>
          <octave>4</octave>
          </pitch>
        <duration>4</duration>
        <voice>1</voice>
        <type>half</type>
        <stem>up</stem>
        <lyric number="1">
          <syllabic>end</syllabic>
          <text>ast.</text>
          </lyric>
        <lyric number="2">
          <syllabic>end</syllabic>
          <text>ed.</text>
          </lyric>
        <lyric number="3">
          <syllabic>end</syllabic>
          <text>ast.</text>
          </lyric>
        </note>
      <note default-x="103.97" default-y="-25.00">
        <chord/>
        <pitch>
          <step>A</step>
          <octave>4</octave>
          </pitch>
        <duration>4</duration>
        <voice>1</voice>
        <type>half</type>
        <stem>up</stem>
        </note>
      </measure>
    <measure number="9" width="293.82">
      <note default-x="43.31" default-y="-35.00">
        <pitch>
          <step>F</step>
          <octave>4</octave>
          </pitch>
        <duration>1</duration>
        <voice>1</voice>
        <type>eighth</type>
        <stem>up</stem>
        <beam number="1">begin</beam>
        <lyric number="1">
          <syllabic>begin</syllabic>
          <text>Kang</text>
          </lyric>
        <lyric number="2">
          <syllabic>begin</syllabic>
          <text>Kang</text>
          </lyric>
        <lyric number="3">
          <syllabic>begin</syllabic>
          <text>Kang</text>
          </lyric>
        </note>
      <note default-x="91.18" default-y="-35.00">
        <pitch>
          <step>F</step>
          <octave>4</octave>
          </pitch>
        <duration>1</duration>
        <voice>1</voice>
        <type>eighth</type>
        <stem>up</stem>
        <beam number="1">end</beam>
        <lyric number="1">
          <syllabic>end</syllabic>
          <text>ast</text>
          </lyric>
        <lyric number="2">
          <syllabic>end</syllabic>
          <text>ast</text>
          </lyric>
        <lyric number="3">
          <syllabic>end</syllabic>
          <text>ast</text>
          </lyric>
        </note>
      <note default-x="139.04" default-y="-20.00">
        <pitch>
          <step>B</step>
          <octave>4</octave>
          </pitch>
        <duration>2</duration>
        <voice>1</voice>
        <type>quarter</type>
        <stem>down</stem>
        <lyric number="1">
          <syllabic>begin</syllabic>
          <text>koo</text>
          </lyric>
        <lyric number="2">
          <syllabic>begin</syllabic>
          <text>koo</text>
          </lyric>
        <lyric number="3">
          <syllabic>begin</syllabic>
          <text>koo</text>
          </lyric>
        </note>
      <note default-x="139.04" default-y="-10.00">
        <chord/>
        <pitch>
          <step>D</step>
          <octave>5</octave>
          </pitch>
        <duration>2</duration>
        <voice>1</voice>
        <type>quarter</type>
        <stem>down</stem>
        </note>
      <note default-x="215.63" default-y="-20.00">
        <pitch>
          <step>B</step>
          <octave>4</octave>
          </pitch>
        <duration>2</duration>
        <voice>1</voice>
        <type>quarter</type>
        <stem>down</stem>
        <lyric number="1">
          <syllabic>end</syllabic>
          <text>me,</text>
          </lyric>
        <lyric number="2">
          <syllabic>end</syllabic>
          <text>me,</text>
          </lyric>
        <lyric number="3">
          <syllabic>end</syllabic>
          <text>ti,</text>
          </lyric>
        </note>
      <note default-x="215.63" default-y="-10.00">
        <chord/>
        <pitch>
          <step>D</step>
          <octave>5</octave>
          </pitch>
        <duration>2</duration>
        <voice>1</voice>
        <type>quarter</type>
        <stem>down</stem>
        </note>
      </measure>
    <measure number="10" width="274.25">
      <note default-x="34.75" default-y="-25.00">
        <pitch>
          <step>A</step>
          <octave>4</octave>
          </pitch>
        <duration>1</duration>
        <voice>1</voice>
        <type>eighth</type>
        <stem>up</stem>
        <beam number="1">begin</beam>
        <lyric number="1">
          <syllabic>begin</syllabic>
          <text>lõi</text>
          </lyric>
        <lyric number="2">
          <syllabic>begin</syllabic>
          <text>lõi</text>
          </lyric>
        <lyric number="3">
          <syllabic>begin</syllabic>
          <text>prii</text>
          </lyric>
        </note>
      <note default-x="34.75" default-y="-15.00">
        <chord/>
        <pitch>
          <step>C</step>
          <octave>5</octave>
          </pitch>
        <duration>1</duration>
        <voice>1</voice>
        <type>eighth</type>
        <stem>up</stem>
        </note>
      <note default-x="80.50" default-y="-30.00">
        <pitch>
          <step>G</step>
          <octave>4</octave>
          </pitch>
        <duration>1</duration>
        <voice>1</voice>
        <type>eighth</type>
        <stem>up</stem>
        <beam number="1">end</beam>
        <lyric number="1">
          <syllabic>end</syllabic>
          <text>me</text>
          </lyric>
        <lyric number="2">
          <syllabic>end</syllabic>
          <text>me</text>
          </lyric>
        <lyric number="3">
          <syllabic>end</syllabic>
          <text>us</text>
          </lyric>
        </note>
      <note default-x="80.50" default-y="-20.00">
        <chord/>
        <pitch>
          <step>B</step>
          <octave>4</octave>
          </pitch>
        <duration>1</duration>
        <voice>1</voice>
        <type>eighth</type>
        <stem>up</stem>
        </note>
      <note default-x="126.25" default-y="-25.00">
        <pitch>
          <step>A</step>
          <octave>4</octave>
          </pitch>
        <duration>2</duration>
        <voice>1</voice>
        <type>quarter</type>
        <stem>down</stem>
        <lyric number="1">
          <syllabic>begin</syllabic>
          <text>loo</text>
          </lyric>
        <lyric number="2">
          <syllabic>begin</syllabic>
          <text>loo</text>
          </lyric>
        <lyric number="3">
          <syllabic>begin</syllabic>
          <text>too</text>
          </lyric>
        </note>
      <note default-x="126.25" default-y="-15.00">
        <chord/>
        <pitch>
          <step>C</step>
          <octave>5</octave>
          </pitch>
        <duration>2</duration>
        <voice>1</voice>
        <type>quarter</type>
        <stem>down</stem>
        </note>
      <note default-x="199.45" default-y="-25.00">
        <pitch>
          <step>A</step>
          <octave>4</octave>
          </pitch>
        <duration>2</duration>
        <voice>1</voice>
        <type>quarter</type>
        <stem>down</stem>
        <lyric number="1">
          <syllabic>end</syllabic>
          <text>me,</text>
          </lyric>
        <lyric number="2">
          <syllabic>end</syllabic>
          <text>me,</text>
          </lyric>
        <lyric number="3">
          <syllabic>end</syllabic>
          <text>di,</text>
          </lyric>
        </note>
      <note default-x="199.45" default-y="-15.00">
        <chord/>
        <pitch>
          <step>C</step>
          <octave>5</octave>
          </pitch>
        <duration>2</duration>
        <voice>1</voice>
        <type>quarter</type>
        <stem>down</stem>
        </note>
      </measure>
    <measure number="11" width="361.44">
      <print new-system="yes">
        <system-layout>
          <system-margins>
            <left-margin>2.50</left-margin>
            <right-margin>0.00</right-margin>
            </system-margins>
          <system-distance>154.84</system-distance>
          </system-layout>
        </print>
      <note default-x="77.10" default-y="-30.00">
        <pitch>
          <step>G</step>
          <octave>4</octave>
          </pitch>
        <duration>1</duration>
        <voice>1</voice>
        <type>eighth</type>
        <stem>up</stem>
        <beam number="1">begin</beam>
        <lyric number="1">
          <syllabic>begin</syllabic>
          <text>lase</text>
          </lyric>
        <lyric number="2">
          <syllabic>begin</syllabic>
          <text>lase</text>
          </lyric>
        <lyric number="3">
          <syllabic>single</syllabic>
          <text>Eesti</text>
          </lyric>
        </note>
      <note default-x="77.10" default-y="-20.00">
        <chord/>
        <pitch>
          <step>B</step>
          <octave>4</octave>
          </pitch>
        <duration>1</duration>
        <voice>1</voice>
        <type>eighth</type>
        <stem>up</stem>
        </note>
      <note default-x="131.47" default-y="-30.00">
        <pitch>
          <step>G</step>
          <octave>4</octave>
          </pitch>
        <duration>1</duration>
        <voice>1</voice>
        <type>eighth</type>
        <stem>up</stem>
        <beam number="1">end</beam>
        <lyric number="1">
          <syllabic>end</syllabic>
          <text>me</text>
          </lyric>
        <lyric number="2">
          <syllabic>end</syllabic>
          <text>me</text>
          </lyric>
        <lyric number="3">
          <syllabic>single</syllabic>
          <text>kodu</text>
          </lyric>
        </note>
      <note default-x="131.47" default-y="-20.00">
        <chord/>
        <pitch>
          <step>B</step>
          <octave>4</octave>
          </pitch>
        <duration>1</duration>
        <voice>1</voice>
        <type>eighth</type>
        <stem>up</stem>
        </note>
      <note default-x="185.85" default-y="-50.00">
        <pitch>
          <step>C</step>
          <octave>4</octave>
          </pitch>
        <duration>2</duration>
        <voice>1</voice>
        <type>quarter</type>
        <stem>up</stem>
        <lyric number="1">
          <syllabic>begin</syllabic>
          <text>süsti</text>
          </lyric>
        <lyric number="2">
          <syllabic>begin</syllabic>
          <text>süsti</text>
          </lyric>
        <lyric number="3">
          <syllabic>begin</syllabic>
          <text>ta</text>
          </lyric>
        </note>
      <note default-x="185.85" default-y="-20.00">
        <chord/>
        <pitch>
          <step>B</step>
          <octave>4</octave>
          </pitch>
        <duration>2</duration>
        <voice>1</voice>
        <type>quarter</type>
        <stem>up</stem>
        </note>
      <note default-x="272.84" default-y="-40.00">
        <pitch>
          <step>E</step>
          <octave>4</octave>
          </pitch>
        <duration>2</duration>
        <voice>1</voice>
        <type>quarter</type>
        <stem>up</stem>
        <lyric number="1">
          <syllabic>middle</syllabic>
          <text>kutel</text>
          </lyric>
        <lyric number="2">
          <syllabic>end</syllabic>
          <text>kutel</text>
          </lyric>
        <lyric number="3">
          <syllabic>end</syllabic>
          <text>lu</text>
          </lyric>
        </note>
      <note default-x="272.84" default-y="-20.00">
        <chord/>
        <pitch>
          <step>B</step>
          <octave>4</octave>
          </pitch>
        <duration>2</duration>
        <voice>1</voice>
        <type>quarter</type>
        <stem>up</stem>
        </note>
      </measure>
    <measure number="12" width="184.08">
      <note default-x="32.92" default-y="-30.00">
        <pitch>
          <step>G</step>
          <octave>4</octave>
          </pitch>
        <duration>2</duration>
        <voice>1</voice>
        <type>quarter</type>
        <stem>up</stem>
        <lyric number="1">
          <syllabic>middle</syllabic>
          <text>käi</text>
          </lyric>
        <lyric number="2">
          <syllabic>begin</syllabic>
          <text>käi</text>
          </lyric>
        <lyric number="3">
          <syllabic>begin</syllabic>
          <text>õu</text>
          </lyric>
        </note>
      <note default-x="32.92" default-y="-20.00">
        <chord/>
        <pitch>
          <step>B</step>
          <octave>4</octave>
          </pitch>
        <duration>2</duration>
        <voice>1</voice>
        <type>quarter</type>
        <stem>up</stem>
        </note>
      <note default-x="90.44" default-y="-35.00">
        <pitch>
          <step>F</step>
          <octave>4</octave>
          </pitch>
        <duration>4</duration>
        <voice>1</voice>
        <type>half</type>
        <stem>up</stem>
        <lyric number="1">
          <syllabic>end</syllabic>
          <text>a.</text>
          </lyric>
        <lyric number="2">
          <syllabic>end</syllabic>
          <text>a.</text>
          </lyric>
        <lyric number="3">
          <syllabic>end</syllabic>
          <text>e.</text>
          </lyric>
        </note>
      <note default-x="90.44" default-y="-25.00">
        <chord/>
        <pitch>
          <step>A</step>
          <octave>4</octave>
          </pitch>
        <duration>4</duration>
        <voice>1</voice>
        <type>half</type>
        <stem>up</stem>
        </note>
      </measure>
    <measure number="13" width="291.04">
      <note default-x="43.31" default-y="-35.00">
        <pitch>
          <step>F</step>
          <octave>4</octave>
          </pitch>
        <duration>1</duration>
        <voice>1</voice>
        <type>eighth</type>
        <stem>up</stem>
        <beam number="1">begin</beam>
        <lyric number="1">
          <syllabic>begin</syllabic>
          <text>Kang</text>
          </lyric>
        <lyric number="2">
          <syllabic>begin</syllabic>
          <text>Kang</text>
          </lyric>
        <lyric number="3">
          <syllabic>begin</syllabic>
          <text>Kang</text>
          </lyric>
        </note>
      <note default-x="90.64" default-y="-35.00">
        <pitch>
          <step>F</step>
          <octave>4</octave>
          </pitch>
        <duration>1</duration>
        <voice>1</voice>
        <type>eighth</type>
        <stem>up</stem>
        <beam number="1">end</beam>
        <lyric number="1">
          <syllabic>end</syllabic>
          <text>ast</text>
          </lyric>
        <lyric number="2">
          <syllabic>end</syllabic>
          <text>ast</text>
          </lyric>
        <lyric number="3">
          <syllabic>end</syllabic>
          <text>ast</text>
          </lyric>
        </note>
      <note default-x="137.98" default-y="-20.00">
        <pitch>
          <step>B</step>
          <octave>4</octave>
          </pitch>
        <duration>2</duration>
        <voice>1</voice>
        <type>quarter</type>
        <stem>down</stem>
        <lyric number="1">
          <syllabic>single</syllabic>
          <text>koo</text>
          </lyric>
        <lyric number="2">
          <syllabic>single</syllabic>
          <text>koo</text>
          </lyric>
        <lyric number="3">
          <syllabic>begin</syllabic>
          <text>koo</text>
          </lyric>
        </note>
      <note default-x="137.98" default-y="-10.00">
        <chord/>
        <pitch>
          <step>D</step>
          <octave>5</octave>
          </pitch>
        <duration>2</duration>
        <voice>1</voice>
        <type>quarter</type>
        <stem>down</stem>
        </note>
      <note default-x="213.71" default-y="-20.00">
        <pitch>
          <step>B</step>
          <octave>4</octave>
          </pitch>
        <duration>2</duration>
        <voice>1</voice>
        <type>quarter</type>
        <stem>down</stem>
        <lyric number="1">
          <syllabic>single</syllabic>
          <text>me,</text>
          </lyric>
        <lyric number="2">
          <syllabic>single</syllabic>
          <text>me,</text>
          </lyric>
        <lyric number="3">
          <syllabic>end</syllabic>
          <text>ti,</text>
          </lyric>
        </note>
      <note default-x="213.71" default-y="-10.00">
        <chord/>
        <pitch>
          <step>D</step>
          <octave>5</octave>
          </pitch>
        <duration>2</duration>
        <voice>1</voice>
        <type>quarter</type>
        <stem>down</stem>
        </note>
      </measure>
    <measure number="14" width="271.48">
      <note default-x="34.75" default-y="-25.00">
        <pitch>
          <step>A</step>
          <octave>4</octave>
          </pitch>
        <duration>1</duration>
        <voice>1</voice>
        <type>eighth</type>
        <stem>up</stem>
        <beam number="1">begin</beam>
        <lyric number="1">
          <syllabic>begin</syllabic>
          <text>lõi</text>
          </lyric>
        <lyric number="2">
          <syllabic>begin</syllabic>
          <text>lõi</text>
          </lyric>
        <lyric number="3">
          <syllabic>begin</syllabic>
          <text>prii</text>
          </lyric>
        </note>
      <note default-x="34.75" default-y="-15.00">
        <chord/>
        <pitch>
          <step>C</step>
          <octave>5</octave>
          </pitch>
        <duration>1</duration>
        <voice>1</voice>
        <type>eighth</type>
        <stem>up</stem>
        </note>
      <note default-x="79.97" default-y="-30.00">
        <pitch>
          <step>G</step>
          <octave>4</octave>
          </pitch>
        <duration>1</duration>
        <voice>1</voice>
        <type>eighth</type>
        <stem>up</stem>
        <beam number="1">end</beam>
        <lyric number="1">
          <syllabic>end</syllabic>
          <text>me</text>
          </lyric>
        <lyric number="2">
          <syllabic>end</syllabic>
          <text>me</text>
          </lyric>
        <lyric number="3">
          <syllabic>end</syllabic>
          <text>us</text>
          </lyric>
        </note>
      <note default-x="79.97" default-y="-20.00">
        <chord/>
        <pitch>
          <step>B</step>
          <octave>4</octave>
          </pitch>
        <duration>1</duration>
        <voice>1</voice>
        <type>eighth</type>
        <stem>up</stem>
        </note>
      <note default-x="125.18" default-y="-25.00">
        <pitch>
          <step>A</step>
          <octave>4</octave>
          </pitch>
        <duration>2</duration>
        <voice>1</voice>
        <type>quarter</type>
        <stem>down</stem>
        <lyric number="1">
          <syllabic>begin</syllabic>
          <text>loo</text>
          </lyric>
        <lyric number="2">
          <syllabic>begin</syllabic>
          <text>loo</text>
          </lyric>
        <lyric number="3">
          <syllabic>begin</syllabic>
          <text>too</text>
          </lyric>
        </note>
      <note default-x="125.18" default-y="-15.00">
        <chord/>
        <pitch>
          <step>C</step>
          <octave>5</octave>
          </pitch>
        <duration>2</duration>
        <voice>1</voice>
        <type>quarter</type>
        <stem>down</stem>
        </note>
      <note default-x="197.53" default-y="-25.00">
        <pitch>
          <step>A</step>
          <octave>4</octave>
          </pitch>
        <duration>2</duration>
        <voice>1</voice>
        <type>quarter</type>
        <stem>down</stem>
        <lyric number="1">
          <syllabic>end</syllabic>
          <text>me,</text>
          </lyric>
        <lyric number="2">
          <syllabic>end</syllabic>
          <text>me,</text>
          </lyric>
        <lyric number="3">
          <syllabic>end</syllabic>
          <text>di,</text>
          </lyric>
        </note>
      <note default-x="197.53" default-y="-15.00">
        <chord/>
        <pitch>
          <step>C</step>
          <octave>5</octave>
          </pitch>
        <duration>2</duration>
        <voice>1</voice>
        <type>quarter</type>
        <stem>down</stem>
        </note>
      </measure>
    <measure number="15" width="639.71">
      <print new-system="yes">
        <system-layout>
          <system-margins>
            <left-margin>2.50</left-margin>
            <right-margin>0.00</right-margin>
            </system-margins>
          <system-distance>154.84</system-distance>
          </system-layout>
        </print>
      <note default-x="77.10" default-y="-30.00">
        <pitch>
          <step>G</step>
          <octave>4</octave>
          </pitch>
        <duration>1</duration>
        <voice>1</voice>
        <type>eighth</type>
        <stem>up</stem>
        <beam number="1">begin</beam>
        <lyric number="1">
          <syllabic>begin</syllabic>
          <text>lase</text>
          </lyric>
        <lyric number="2">
          <syllabic>begin</syllabic>
          <text>lase</text>
          </lyric>
        <lyric number="3">
          <syllabic>single</syllabic>
          <text>Eesti</text>
          </lyric>
        </note>
      <note default-x="77.10" default-y="-20.00">
        <chord/>
        <pitch>
          <step>B</step>
          <octave>4</octave>
          </pitch>
        <duration>1</duration>
        <voice>1</voice>
        <type>eighth</type>
        <stem>up</stem>
        </note>
      <note default-x="184.99" default-y="-30.00">
        <pitch>
          <step>G</step>
          <octave>4</octave>
          </pitch>
        <duration>1</duration>
        <voice>1</voice>
        <type>eighth</type>
        <stem>up</stem>
        <beam number="1">end</beam>
        <lyric number="1">
          <syllabic>end</syllabic>
          <text>me</text>
          </lyric>
        <lyric number="2">
          <syllabic>end</syllabic>
          <text>me</text>
          </lyric>
        <lyric number="3">
          <syllabic>single</syllabic>
          <text>kodu</text>
          </lyric>
        </note>
      <note default-x="184.99" default-y="-20.00">
        <chord/>
        <pitch>
          <step>B</step>
          <octave>4</octave>
          </pitch>
        <duration>1</duration>
        <voice>1</voice>
        <type>eighth</type>
        <stem>up</stem>
        </note>
      <note default-x="292.87" default-y="-50.00">
        <pitch>
          <step>C</step>
          <octave>4</octave>
          </pitch>
        <duration>2</duration>
        <voice>1</voice>
        <type>quarter</type>
        <stem>up</stem>
        <lyric number="1">
          <syllabic>begin</syllabic>
          <text>süsti</text>
          </lyric>
        <lyric number="2">
          <syllabic>begin</syllabic>
          <text>süsti</text>
          </lyric>
        <lyric number="3">
          <syllabic>begin</syllabic>
          <text>ta</text>
          </lyric>
        </note>
      <note default-x="292.87" default-y="-20.00">
        <chord/>
        <pitch>
          <step>B</step>
          <octave>4</octave>
          </pitch>
        <duration>2</duration>
        <voice>1</voice>
        <type>quarter</type>
        <stem>up</stem>
        </note>
      <note default-x="465.49" default-y="-40.00">
        <pitch>
          <step>E</step>
          <octave>4</octave>
          </pitch>
        <duration>2</duration>
        <voice>1</voice>
        <type>quarter</type>
        <stem>up</stem>
        <lyric number="1">
          <syllabic>end</syllabic>
          <text>kutel</text>
          </lyric>
        <lyric number="2">
          <syllabic>end</syllabic>
          <text>kutel</text>
          </lyric>
        <lyric number="3">
          <syllabic>end</syllabic>
          <text>lu</text>
          </lyric>
        </note>
      <note default-x="465.49" default-y="-20.00">
        <chord/>
        <pitch>
          <step>B</step>
          <octave>4</octave>
          </pitch>
        <duration>2</duration>
        <voice>1</voice>
        <type>quarter</type>
        <stem>up</stem>
        </note>
      </measure>
    <measure number="16" width="468.34">
      <note default-x="32.92" default-y="-30.00">
        <pitch>
          <step>G</step>
          <octave>4</octave>
          </pitch>
        <duration>2</duration>
        <voice>1</voice>
        <type>quarter</type>
        <stem>up</stem>
        <lyric number="1">
          <syllabic>begin</syllabic>
          <text>käi</text>
          </lyric>
        <lyric number="2">
          <syllabic>begin</syllabic>
          <text>käi</text>
          </lyric>
        <lyric number="3">
          <syllabic>begin</syllabic>
          <text>õu</text>
          </lyric>
        </note>
      <note default-x="32.92" default-y="-20.00">
        <chord/>
        <pitch>
          <step>B</step>
          <octave>4</octave>
          </pitch>
        <duration>2</duration>
        <voice>1</voice>
        <type>quarter</type>
        <stem>up</stem>
        </note>
      <note default-x="197.47" default-y="-35.00">
        <pitch>
          <step>F</step>
          <octave>4</octave>
          </pitch>
        <duration>4</duration>
        <voice>1</voice>
        <type>half</type>
        <stem>up</stem>
        <lyric number="1">
          <syllabic>end</syllabic>
          <text>a.</text>
          </lyric>
        <lyric number="2">
          <syllabic>end</syllabic>
          <text>a.</text>
          </lyric>
        <lyric number="3">
          <syllabic>end</syllabic>
          <text>e.</text>
          </lyric>
        </note>
      <note default-x="197.47" default-y="-25.00">
        <chord/>
        <pitch>
          <step>A</step>
          <octave>4</octave>
          </pitch>
        <duration>4</duration>
        <voice>1</voice>
        <type>half</type>
        <stem>up</stem>
        </note>
      <barline location="right">
        <bar-style>light-heavy</bar-style>
        </barline>
      </measure>
    </part>
  </score-partwise>
