<?xml version="1.0" encoding="UTF-8"?>
<!DOCTYPE score-partwise PUBLIC "-//Recordare//DTD MusicXML 2.0 Partwise//EN" "http://www.musicxml.org/dtds/partwise.dtd">
<score-partwise>
  <identification>
    <encoding>
      <software>MuseScore 1.3</software>
      <encoding-date>2014-12-04</encoding-date>
      </encoding>
    </identification>
  <defaults>
    <scaling>
      <millimeters>7.056</millimeters>
      <tenths>40</tenths>
      </scaling>
    <page-layout>
      <page-height>1583.9</page-height>
      <page-width>1223.92</page-width>
      <page-margins type="even">
        <left-margin>56.6893</left-margin>
        <right-margin>56.6893</right-margin>
        <top-margin>56.6893</top-margin>
        <bottom-margin>113.379</bottom-margin>
        </page-margins>
      <page-margins type="odd">
        <left-margin>56.6893</left-margin>
        <right-margin>56.6893</right-margin>
        <top-margin>56.6893</top-margin>
        <bottom-margin>113.379</bottom-margin>
        </page-margins>
      </page-layout>
    </defaults>
  <credit page="1">
    <credit-words default-x="611.961" default-y="1527.21" font-size="24" justify="center" valign="top">Läbi lume sahiseva</credit-words>
    </credit>
  <credit page="1">
    <credit-words default-x="1167.23" default-y="1460.21" font-size="12" justify="right" valign="top">J. Aavik</credit-words>
    </credit>
  <credit page="1">
    <credit-words default-x="56.6893" default-y="1460.21" font-size="12" justify="left" valign="top">J. Jenson</credit-words>
    </credit>
  <part-list>
    <score-part id="P1">
      <part-name></part-name>
      <score-instrument id="P1-I3">
        <instrument-name></instrument-name>
        </score-instrument>
      <midi-instrument id="P1-I3">
        <midi-channel>1</midi-channel>
        <midi-program>53</midi-program>
        <volume>78.7402</volume>
        <pan>0</pan>
        </midi-instrument>
      </score-part>
    </part-list>
  <part id="P1">
    <measure number="1" width="317.52">
      <print>
        <system-layout>
          <system-margins>
            <left-margin>2.50</left-margin>
            <right-margin>0.00</right-margin>
            </system-margins>
          <top-system-distance>180.00</top-system-distance>
          </system-layout>
        </print>
      <attributes>
        <divisions>2</divisions>
        <key>
          <fifths>3</fifths>
          <mode>major</mode>
          </key>
        <time>
          <beats>2</beats>
          <beat-type>4</beat-type>
          </time>
        <clef>
          <sign>G</sign>
          <line>2</line>
          </clef>
        </attributes>
      <note default-x="121.90" default-y="-25.00">
        <pitch>
          <step>A</step>
          <octave>4</octave>
          </pitch>
        <duration>1</duration>
        <voice>1</voice>
        <type>eighth</type>
        <stem>up</stem>
        <beam number="1">begin</beam>
        <lyric number="1">
          <syllabic>begin</syllabic>
          <text>Lä</text>
          </lyric>
        <lyric number="2">
          <syllabic>begin</syllabic>
          <text>Ke</text>
          </lyric>
        <lyric number="3">
          <syllabic>begin</syllabic>
          <text>Sõi</text>
          </lyric>
        <lyric number="4">
          <syllabic>begin</syllabic>
          <text>Ko</text>
          </lyric>
        </note>
      <note default-x="170.40" default-y="-35.00">
        <pitch>
          <step>F</step>
          <alter>1</alter>
          <octave>4</octave>
          </pitch>
        <duration>1</duration>
        <voice>1</voice>
        <type>eighth</type>
        <stem>up</stem>
        <beam number="1">end</beam>
        <lyric number="1">
          <syllabic>end</syllabic>
          <text>bi</text>
          </lyric>
        <lyric number="2">
          <syllabic>end</syllabic>
          <text>na</text>
          </lyric>
        <lyric number="3">
          <syllabic>end</syllabic>
          <text>da</text>
          </lyric>
        <lyric number="4">
          <syllabic>end</syllabic>
          <text>dus</text>
          </lyric>
        </note>
      <note default-x="218.91" default-y="-40.00">
        <pitch>
          <step>E</step>
          <octave>4</octave>
          </pitch>
        <duration>1</duration>
        <voice>1</voice>
        <type>eighth</type>
        <stem>up</stem>
        <beam number="1">begin</beam>
        <lyric number="1">
          <syllabic>begin</syllabic>
          <text>lu</text>
          </lyric>
        <lyric number="2">
          <syllabic>begin</syllabic>
          <text>jõu</text>
          </lyric>
        <lyric number="3">
          <syllabic>begin</syllabic>
          <text>rut</text>
          </lyric>
        <lyric number="4">
          <syllabic>begin</syllabic>
          <text>pan</text>
          </lyric>
        </note>
      <note default-x="267.41" default-y="-40.00">
        <pitch>
          <step>E</step>
          <octave>4</octave>
          </pitch>
        <duration>1</duration>
        <voice>1</voice>
        <type>eighth</type>
        <stem>up</stem>
        <beam number="1">end</beam>
        <lyric number="1">
          <syllabic>end</syllabic>
          <text>me</text>
          </lyric>
        <lyric number="2">
          <syllabic>end</syllabic>
          <text>lu</text>
          </lyric>
        <lyric number="3">
          <syllabic>end</syllabic>
          <text>tu,</text>
          </lyric>
        <lyric number="4">
          <syllabic>end</syllabic>
          <text>nil</text>
          </lyric>
        </note>
      </measure>
    <measure number="2" width="216.11">
      <note default-x="19.65" default-y="-25.00">
        <pitch>
          <step>A</step>
          <octave>4</octave>
          </pitch>
        <duration>1</duration>
        <voice>1</voice>
        <type>eighth</type>
        <stem>up</stem>
        <beam number="1">begin</beam>
        <lyric number="1">
          <syllabic>begin</syllabic>
          <text>sa</text>
          </lyric>
        <lyric number="2">
          <syllabic>begin</syllabic>
          <text>eh</text>
          </lyric>
        <lyric number="3">
          <syllabic>begin</syllabic>
          <text>saa</text>
          </lyric>
        <lyric number="4">
          <syllabic>begin</syllabic>
          <text>jõu</text>
          </lyric>
        </note>
      <note default-x="68.36" default-y="-35.00">
        <pitch>
          <step>F</step>
          <alter>1</alter>
          <octave>4</octave>
          </pitch>
        <duration>1</duration>
        <voice>1</voice>
        <type>eighth</type>
        <stem>up</stem>
        <beam number="1">end</beam>
        <lyric number="1">
          <syllabic>middle</syllabic>
          <text>hi</text>
          </lyric>
        <lyric number="2">
          <syllabic>end</syllabic>
          <text>te</text>
          </lyric>
        <lyric number="3">
          <syllabic>middle</syllabic>
          <text>ni</text>
          </lyric>
        <lyric number="4">
          <syllabic>middle</syllabic>
          <text>lu</text>
          </lyric>
        </note>
      <note default-x="117.08" default-y="-40.00">
        <pitch>
          <step>E</step>
          <octave>4</octave>
          </pitch>
        <duration>1</duration>
        <voice>1</voice>
        <type>eighth</type>
        <stem>up</stem>
        <beam number="1">begin</beam>
        <lyric number="1">
          <syllabic>middle</syllabic>
          <text>se</text>
          </lyric>
        <lyric number="2">
          <syllabic>begin</syllabic>
          <text>saa</text>
          </lyric>
        <lyric number="3">
          <syllabic>middle</syllabic>
          <text>ke</text>
          </lyric>
        <lyric number="4">
          <syllabic>middle</syllabic>
          <text>vors</text>
          </lyric>
        </note>
      <note default-x="165.80" default-y="-40.00">
        <pitch>
          <step>E</step>
          <octave>4</octave>
          </pitch>
        <duration>1</duration>
        <voice>1</voice>
        <type>eighth</type>
        <stem>up</stem>
        <beam number="1">end</beam>
        <lyric number="1">
          <syllabic>end</syllabic>
          <text>va</text>
          </lyric>
        <lyric number="2">
          <syllabic>end</syllabic>
          <text>nud</text>
          </lyric>
        <lyric number="3">
          <syllabic>end</syllabic>
          <text>ne,</text>
          </lyric>
        <lyric number="4">
          <syllabic>end</syllabic>
          <text>tid</text>
          </lyric>
        </note>
      </measure>
    <measure number="3" width="219.53">
      <note default-x="18.41" default-y="-25.00">
        <pitch>
          <step>A</step>
          <octave>4</octave>
          </pitch>
        <duration>1</duration>
        <voice>1</voice>
        <type>eighth</type>
        <stem>up</stem>
        <beam number="1">begin</beam>
        <lyric number="1">
          <syllabic>begin</syllabic>
          <text>sõi</text>
          </lyric>
        <lyric number="2">
          <syllabic>begin</syllabic>
          <text>i</text>
          </lyric>
        <lyric number="3">
          <syllabic>begin</syllabic>
          <text>ko</text>
          </lyric>
        <lyric number="4">
          <syllabic>begin</syllabic>
          <text>sä</text>
          </lyric>
        </note>
      <note default-x="68.29" default-y="-30.00">
        <pitch>
          <step>G</step>
          <alter>1</alter>
          <octave>4</octave>
          </pitch>
        <duration>1</duration>
        <voice>1</voice>
        <type>eighth</type>
        <stem>up</stem>
        <beam number="1">end</beam>
        <lyric number="1">
          <syllabic>end</syllabic>
          <text>dab</text>
          </lyric>
        <lyric number="2">
          <syllabic>end</syllabic>
          <text>ga</text>
          </lyric>
        <lyric number="3">
          <syllabic>end</syllabic>
          <text>ju</text>
          </lyric>
        <lyric number="4">
          <syllabic>middle</syllabic>
          <text>ri</text>
          </lyric>
        </note>
      <note default-x="118.17" default-y="-25.00">
        <pitch>
          <step>A</step>
          <octave>4</octave>
          </pitch>
        <duration>1</duration>
        <voice>1</voice>
        <type>eighth</type>
        <stem>up</stem>
        <beam number="1">begin</beam>
        <lyric number="1">
          <syllabic>begin</syllabic>
          <text>saa</text>
          </lyric>
        <lyric number="2">
          <syllabic>begin</syllabic>
          <text>met</text>
          </lyric>
        <lyric number="3">
          <syllabic>begin</syllabic>
          <text>ki</text>
          </lyric>
        <lyric number="4">
          <syllabic>middle</syllabic>
          <text>se</text>
          </lyric>
        </note>
      <note default-x="168.05" default-y="-20.00">
        <pitch>
          <step>B</step>
          <octave>4</octave>
          </pitch>
        <duration>1</duration>
        <voice>1</voice>
        <type>eighth</type>
        <stem>up</stem>
        <beam number="1">end</beam>
        <lyric number="1">
          <syllabic>middle</syllabic>
          <text>ni</text>
          </lyric>
        <lyric number="2">
          <syllabic>middle</syllabic>
          <text>sa</text>
          </lyric>
        <lyric number="3">
          <syllabic>middle</syllabic>
          <text>ri</text>
          </lyric>
        <lyric number="4">
          <syllabic>end</syllabic>
          <text>vad</text>
          </lyric>
        </note>
      </measure>
    <measure number="4" width="132.73">
      <note default-x="26.66" default-y="-15.00">
        <pitch>
          <step>C</step>
          <alter>1</alter>
          <octave>5</octave>
          </pitch>
        <duration>2</duration>
        <voice>1</voice>
        <type>quarter</type>
        <stem>down</stem>
        <notations>
          <slur type="start" number="1"/>
          </notations>
        <lyric number="1">
          <syllabic>end</syllabic>
          <text>ke</text>
          </lyric>
        <lyric number="2">
          <syllabic>end</syllabic>
          <text>puu,</text>
          </lyric>
        <lyric number="3">
          <syllabic>end</syllabic>
          <text>kust,</text>
          </lyric>
        <lyric number="4">
          <syllabic>single</syllabic>
          <text>ju,</text>
          </lyric>
        </note>
      <note default-x="78.89" default-y="-25.00">
        <pitch>
          <step>A</step>
          <octave>4</octave>
          </pitch>
        <duration>2</duration>
        <voice>1</voice>
        <type>quarter</type>
        <stem>up</stem>
        <notations>
          <slur type="stop" number="1"/>
          </notations>
        </note>
      </measure>
    <measure number="5" width="222.16">
      <note default-x="16.60" default-y="-10.00">
        <pitch>
          <step>D</step>
          <octave>5</octave>
          </pitch>
        <duration>1</duration>
        <voice>1</voice>
        <type>eighth</type>
        <stem>down</stem>
        <beam number="1">begin</beam>
        <lyric number="1">
          <syllabic>begin</syllabic>
          <text>ai</text>
          </lyric>
        <lyric number="2">
          <syllabic>begin</syllabic>
          <text>se</text>
          </lyric>
        <lyric number="3">
          <syllabic>begin</syllabic>
          <text>lä</text>
          </lyric>
        <lyric number="4">
          <syllabic>begin</syllabic>
          <text>ko</text>
          </lyric>
        </note>
      <note default-x="67.59" default-y="-15.00">
        <pitch>
          <step>C</step>
          <alter>1</alter>
          <octave>5</octave>
          </pitch>
        <duration>1</duration>
        <voice>1</voice>
        <type>eighth</type>
        <stem>down</stem>
        <beam number="1">end</beam>
        <lyric number="1">
          <syllabic>middle</syllabic>
          <text>sa</text>
          </lyric>
        <lyric number="2">
          <syllabic>end</syllabic>
          <text>da</text>
          </lyric>
        <lyric number="3">
          <syllabic>end</syllabic>
          <text>bi</text>
          </lyric>
        <lyric number="4">
          <syllabic>end</syllabic>
          <text>dus</text>
          </lyric>
        </note>
      <note default-x="118.58" default-y="-20.00">
        <pitch>
          <step>B</step>
          <octave>4</octave>
          </pitch>
        <duration>1</duration>
        <voice>1</voice>
        <type>eighth</type>
        <stem>down</stem>
        <beam number="1">begin</beam>
        <lyric number="1">
          <syllabic>end</syllabic>
          <text>kell</text>
          </lyric>
        <lyric number="2">
          <syllabic>begin</syllabic>
          <text>i</text>
          </lyric>
        <lyric number="3">
          <syllabic>begin</syllabic>
          <text>lu</text>
          </lyric>
        <lyric number="4">
          <syllabic>begin</syllabic>
          <text>oot</text>
          </lyric>
        </note>
      <note default-x="169.57" default-y="-20.00">
        <pitch>
          <step>B</step>
          <octave>4</octave>
          </pitch>
        <duration>1</duration>
        <voice>1</voice>
        <type>eighth</type>
        <stem>down</stem>
        <beam number="1">end</beam>
        <lyric number="1">
          <syllabic>single</syllabic>
          <text>lööb</text>
          </lyric>
        <lyric number="2">
          <syllabic>end</syllabic>
          <text>lu</text>
          </lyric>
        <lyric number="3">
          <syllabic>end</syllabic>
          <text>ha</text>
          </lyric>
        <lyric number="4">
          <syllabic>end</syllabic>
          <text>vad</text>
          </lyric>
        </note>
      </measure>
    <measure number="6" width="299.02">
      <print new-system="yes">
        <system-layout>
          <system-margins>
            <left-margin>2.50</left-margin>
            <right-margin>0.00</right-margin>
            </system-margins>
          <system-distance>180.09</system-distance>
          </system-layout>
        </print>
      <note default-x="101.40" default-y="-15.00">
        <pitch>
          <step>C</step>
          <alter>1</alter>
          <octave>5</octave>
          </pitch>
        <duration>1</duration>
        <voice>1</voice>
        <type>eighth</type>
        <stem>down</stem>
        <beam number="1">begin</beam>
        <lyric number="1">
          <syllabic>begin</syllabic>
          <text>til</text>
          </lyric>
        <lyric number="2">
          <syllabic>begin</syllabic>
          <text>vaa</text>
          </lyric>
        <lyric number="3">
          <syllabic>begin</syllabic>
          <text>ü</text>
          </lyric>
        <lyric number="4">
          <syllabic>begin</syllabic>
          <text>kin</text>
          </lyric>
        </note>
      <note default-x="150.40" default-y="-20.00">
        <pitch>
          <step>B</step>
          <octave>4</octave>
          </pitch>
        <duration>1</duration>
        <voice>1</voice>
        <type>eighth</type>
        <stem>down</stem>
        <beam number="1">end</beam>
        <lyric number="1">
          <syllabic>middle</syllabic>
          <text>la</text>
          </lyric>
        <lyric number="2">
          <syllabic>end</syllabic>
          <text>tab</text>
          </lyric>
        <lyric number="3">
          <syllabic>end</syllabic>
          <text>le</text>
          </lyric>
        <lyric number="4">
          <syllabic>middle</syllabic>
          <text>gi</text>
          </lyric>
        </note>
      <note default-x="199.41" default-y="-25.00">
        <pitch>
          <step>A</step>
          <octave>4</octave>
          </pitch>
        <duration>1</duration>
        <voice>1</voice>
        <type>eighth</type>
        <stem>up</stem>
        <beam number="1">begin</beam>
        <lyric number="1">
          <syllabic>middle</syllabic>
          <text>tal</text>
          </lyric>
        <lyric number="2">
          <syllabic>begin</syllabic>
          <text>kõr</text>
          </lyric>
        <lyric number="3">
          <syllabic>begin</syllabic>
          <text>kin</text>
          </lyric>
        <lyric number="4">
          <syllabic>middle</syllabic>
          <text>tu</text>
          </lyric>
        </note>
      <note default-x="248.42" default-y="-25.00">
        <pitch>
          <step>A</step>
          <octave>4</octave>
          </pitch>
        <duration>1</duration>
        <voice>1</voice>
        <type>eighth</type>
        <stem>up</stem>
        <beam number="1">end</beam>
        <lyric number="1">
          <syllabic>end</syllabic>
          <text>la</text>
          </lyric>
        <lyric number="2">
          <syllabic>end</syllabic>
          <text>gelt</text>
          </lyric>
        <lyric number="3">
          <syllabic>end</syllabic>
          <text>gu,</text>
          </lyric>
        <lyric number="4">
          <syllabic>end</syllabic>
          <text>sed</text>
          </lyric>
        </note>
      </measure>
    <measure number="7" width="233.03">
      <note default-x="25.15" default-y="-20.00">
        <pitch>
          <step>B</step>
          <octave>4</octave>
          </pitch>
        <duration>1</duration>
        <voice>1</voice>
        <type>eighth</type>
        <stem>up</stem>
        <beam number="1">begin</beam>
        <lyric number="1">
          <syllabic>begin</syllabic>
          <text>ü</text>
          </lyric>
        <lyric number="2">
          <syllabic>begin</syllabic>
          <text>mõ</text>
          </lyric>
        <lyric number="3">
          <syllabic>begin</syllabic>
          <text>möö</text>
          </lyric>
        <lyric number="4">
          <syllabic>begin</syllabic>
          <text>oo</text>
          </lyric>
        </note>
      <note default-x="76.72" default-y="-25.00">
        <pitch>
          <step>A</step>
          <octave>4</octave>
          </pitch>
        <duration>1</duration>
        <voice>1</voice>
        <type>eighth</type>
        <stem>up</stem>
        <beam number="1">end</beam>
        <lyric number="1">
          <syllabic>middle</syllabic>
          <text>li</text>
          </lyric>
        <lyric number="2">
          <syllabic>end</syllabic>
          <text>nus</text>
          </lyric>
        <lyric number="3">
          <syllabic>end</syllabic>
          <text>da</text>
          </lyric>
        <lyric number="4">
          <syllabic>end</syllabic>
          <text>tab</text>
          </lyric>
        </note>
      <note default-x="128.29" default-y="-30.00">
        <pitch>
          <step>G</step>
          <alter>1</alter>
          <octave>4</octave>
          </pitch>
        <duration>1</duration>
        <voice>1</voice>
        <type>eighth</type>
        <stem>up</stem>
        <beam number="1">begin</beam>
        <lyric number="1">
          <syllabic>middle</syllabic>
          <text>arm</text>
          </lyric>
        <lyric number="2">
          <syllabic>begin</syllabic>
          <text>jõu</text>
          </lyric>
        <lyric number="3">
          <syllabic>begin</syllabic>
          <text>män</text>
          </lyric>
        <lyric number="4">
          <syllabic>begin</syllabic>
          <text>jõu</text>
          </lyric>
        </note>
      <note default-x="179.86" default-y="-25.00">
        <pitch>
          <step>A</step>
          <octave>4</octave>
          </pitch>
        <duration>1</duration>
        <voice>1</voice>
        <type>eighth</type>
        <stem>up</stem>
        <beam number="1">end</beam>
        <lyric number="1">
          <syllabic>middle</syllabic>
          <text>sas</text>
          </lyric>
        <lyric number="2">
          <syllabic>end</syllabic>
          <text>lu</text>
          </lyric>
        <lyric number="3">
          <syllabic>middle</syllabic>
          <text>ni</text>
          </lyric>
        <lyric number="4">
          <syllabic>middle</syllabic>
          <text>lu</text>
          </lyric>
        </note>
      </measure>
    <measure number="8" width="134.04">
      <note default-x="26.66" default-y="-20.00">
        <pitch>
          <step>B</step>
          <octave>4</octave>
          </pitch>
        <duration>2</duration>
        <voice>1</voice>
        <type>quarter</type>
        <stem>down</stem>
        <notations>
          <slur type="start" number="1"/>
          </notations>
        <lyric number="1">
          <syllabic>end</syllabic>
          <text>ti,</text>
          </lyric>
        <lyric number="2">
          <syllabic>single</syllabic>
          <text>kuu.</text>
          </lyric>
        <lyric number="3">
          <syllabic>end</syllabic>
          <text>kust,</text>
          </lyric>
        <lyric number="4">
          <syllabic>end</syllabic>
          <text>puu,</text>
          </lyric>
        </note>
      <note default-x="79.55" default-y="-40.00">
        <pitch>
          <step>E</step>
          <octave>4</octave>
          </pitch>
        <duration>2</duration>
        <voice>1</voice>
        <type>quarter</type>
        <stem>up</stem>
        <notations>
          <slur type="stop" number="1"/>
          </notations>
        </note>
      </measure>
    <measure number="9" width="223.48">
      <note default-x="16.60" default-y="-10.00">
        <pitch>
          <step>D</step>
          <octave>5</octave>
          </pitch>
        <duration>1</duration>
        <voice>1</voice>
        <type>eighth</type>
        <stem>down</stem>
        <beam number="1">begin</beam>
        <lyric number="1">
          <syllabic>begin</syllabic>
          <text>ai</text>
          </lyric>
        <lyric number="2">
          <syllabic>begin</syllabic>
          <text>Se</text>
          </lyric>
        <lyric number="3">
          <syllabic>begin</syllabic>
          <text>lä</text>
          </lyric>
        <lyric number="4">
          <syllabic>begin</syllabic>
          <text>ko</text>
          </lyric>
        </note>
      <note default-x="67.92" default-y="-15.00">
        <pitch>
          <step>C</step>
          <alter>1</alter>
          <octave>5</octave>
          </pitch>
        <duration>1</duration>
        <voice>1</voice>
        <type>eighth</type>
        <stem>down</stem>
        <beam number="1">end</beam>
        <lyric number="1">
          <syllabic>middle</syllabic>
          <text>sa</text>
          </lyric>
        <lyric number="2">
          <syllabic>end</syllabic>
          <text>da</text>
          </lyric>
        <lyric number="3">
          <syllabic>end</syllabic>
          <text>bi</text>
          </lyric>
        <lyric number="4">
          <syllabic>end</syllabic>
          <text>dus</text>
          </lyric>
        </note>
      <note default-x="119.24" default-y="-20.00">
        <pitch>
          <step>B</step>
          <octave>4</octave>
          </pitch>
        <duration>1</duration>
        <voice>1</voice>
        <type>eighth</type>
        <stem>down</stem>
        <beam number="1">begin</beam>
        <lyric number="1">
          <syllabic>end</syllabic>
          <text>kell</text>
          </lyric>
        <lyric number="2">
          <syllabic>begin</syllabic>
          <text>i</text>
          </lyric>
        <lyric number="3">
          <syllabic>begin</syllabic>
          <text>lu</text>
          </lyric>
        <lyric number="4">
          <syllabic>begin</syllabic>
          <text>oot</text>
          </lyric>
        </note>
      <note default-x="170.56" default-y="-20.00">
        <pitch>
          <step>B</step>
          <octave>4</octave>
          </pitch>
        <duration>1</duration>
        <voice>1</voice>
        <type>eighth</type>
        <stem>down</stem>
        <beam number="1">end</beam>
        <lyric number="1">
          <syllabic>single</syllabic>
          <text>lööb</text>
          </lyric>
        <lyric number="2">
          <syllabic>end</syllabic>
          <text>lu</text>
          </lyric>
        <lyric number="3">
          <syllabic>end</syllabic>
          <text>ha</text>
          </lyric>
        <lyric number="4">
          <syllabic>end</syllabic>
          <text>vad</text>
          </lyric>
        </note>
      </measure>
    <measure number="10" width="218.47">
      <note default-x="20.85" default-y="-15.00">
        <pitch>
          <step>C</step>
          <alter>1</alter>
          <octave>5</octave>
          </pitch>
        <duration>1</duration>
        <voice>1</voice>
        <type>eighth</type>
        <stem>down</stem>
        <beam number="1">begin</beam>
        <lyric number="1">
          <syllabic>begin</syllabic>
          <text>til</text>
          </lyric>
        <lyric number="2">
          <syllabic>begin</syllabic>
          <text>vaa</text>
          </lyric>
        <lyric number="3">
          <syllabic>begin</syllabic>
          <text>ü</text>
          </lyric>
        <lyric number="4">
          <syllabic>begin</syllabic>
          <text>kin</text>
          </lyric>
        </note>
      <note default-x="69.85" default-y="-20.00">
        <pitch>
          <step>B</step>
          <octave>4</octave>
          </pitch>
        <duration>1</duration>
        <voice>1</voice>
        <type>eighth</type>
        <stem>down</stem>
        <beam number="1">end</beam>
        <lyric number="1">
          <syllabic>middle</syllabic>
          <text>la</text>
          </lyric>
        <lyric number="2">
          <syllabic>end</syllabic>
          <text>tab</text>
          </lyric>
        <lyric number="3">
          <syllabic>end</syllabic>
          <text>le</text>
          </lyric>
        <lyric number="4">
          <syllabic>middle</syllabic>
          <text>gi</text>
          </lyric>
        </note>
      <note default-x="118.86" default-y="-25.00">
        <pitch>
          <step>A</step>
          <octave>4</octave>
          </pitch>
        <duration>1</duration>
        <voice>1</voice>
        <type>eighth</type>
        <stem>up</stem>
        <beam number="1">begin</beam>
        <lyric number="1">
          <syllabic>middle</syllabic>
          <text>tal</text>
          </lyric>
        <lyric number="2">
          <syllabic>begin</syllabic>
          <text>kõr</text>
          </lyric>
        <lyric number="3">
          <syllabic>begin</syllabic>
          <text>kin</text>
          </lyric>
        <lyric number="4">
          <syllabic>middle</syllabic>
          <text>tu</text>
          </lyric>
        </note>
      <note default-x="167.87" default-y="-25.00">
        <pitch>
          <step>A</step>
          <octave>4</octave>
          </pitch>
        <duration>1</duration>
        <voice>1</voice>
        <type>eighth</type>
        <stem>up</stem>
        <beam number="1">end</beam>
        <lyric number="1">
          <syllabic>end</syllabic>
          <text>la</text>
          </lyric>
        <lyric number="2">
          <syllabic>end</syllabic>
          <text>gelt</text>
          </lyric>
        <lyric number="3">
          <syllabic>end</syllabic>
          <text>gu,</text>
          </lyric>
        <lyric number="4">
          <syllabic>end</syllabic>
          <text>sed</text>
          </lyric>
        </note>
      </measure>
    <measure number="11" width="430.11">
      <print new-system="yes">
        <system-layout>
          <system-margins>
            <left-margin>2.50</left-margin>
            <right-margin>0.00</right-margin>
            </system-margins>
          <system-distance>180.09</system-distance>
          </system-layout>
        </print>
      <note default-x="105.70" default-y="-20.00">
        <pitch>
          <step>B</step>
          <octave>4</octave>
          </pitch>
        <duration>1</duration>
        <voice>1</voice>
        <type>eighth</type>
        <stem>up</stem>
        <beam number="1">begin</beam>
        <lyric number="1">
          <syllabic>begin</syllabic>
          <text>ü</text>
          </lyric>
        <lyric number="2">
          <syllabic>begin</syllabic>
          <text>mõ</text>
          </lyric>
        <lyric number="3">
          <syllabic>begin</syllabic>
          <text>möö</text>
          </lyric>
        <lyric number="4">
          <syllabic>begin</syllabic>
          <text>oo</text>
          </lyric>
        </note>
      <note default-x="186.40" default-y="-25.00">
        <pitch>
          <step>A</step>
          <octave>4</octave>
          </pitch>
        <duration>1</duration>
        <voice>1</voice>
        <type>eighth</type>
        <stem>up</stem>
        <beam number="1">end</beam>
        <lyric number="1">
          <syllabic>middle</syllabic>
          <text>li</text>
          </lyric>
        <lyric number="2">
          <syllabic>end</syllabic>
          <text>nus</text>
          </lyric>
        <lyric number="3">
          <syllabic>end</syllabic>
          <text>da</text>
          </lyric>
        <lyric number="4">
          <syllabic>end</syllabic>
          <text>tab</text>
          </lyric>
        </note>
      <note default-x="267.10" default-y="-30.00">
        <pitch>
          <step>G</step>
          <alter>1</alter>
          <octave>4</octave>
          </pitch>
        <duration>1</duration>
        <voice>1</voice>
        <type>eighth</type>
        <stem>up</stem>
        <beam number="1">begin</beam>
        <lyric number="1">
          <syllabic>middle</syllabic>
          <text>arm</text>
          </lyric>
        <lyric number="2">
          <syllabic>begin</syllabic>
          <text>jõu</text>
          </lyric>
        <lyric number="3">
          <syllabic>begin</syllabic>
          <text>män</text>
          </lyric>
        <lyric number="4">
          <syllabic>begin</syllabic>
          <text>jõu</text>
          </lyric>
        </note>
      <note default-x="347.80" default-y="-25.00">
        <pitch>
          <step>A</step>
          <octave>4</octave>
          </pitch>
        <duration>1</duration>
        <voice>1</voice>
        <type>eighth</type>
        <stem>up</stem>
        <beam number="1">end</beam>
        <lyric number="1">
          <syllabic>end</syllabic>
          <text>sas</text>
          </lyric>
        <lyric number="2">
          <syllabic>middle</syllabic>
          <text>lu</text>
          </lyric>
        <lyric number="3">
          <syllabic>middle</syllabic>
          <text>ni</text>
          </lyric>
        <lyric number="4">
          <syllabic>middle</syllabic>
          <text>lu</text>
          </lyric>
        </note>
      </measure>
    <measure number="12" width="250.57">
      <note default-x="26.66" default-y="-20.00">
        <pitch>
          <step>B</step>
          <octave>4</octave>
          </pitch>
        <duration>2</duration>
        <voice>1</voice>
        <type>quarter</type>
        <stem>down</stem>
        <notations>
          <slur type="start" number="1"/>
          </notations>
        <lyric number="1">
          <syllabic>single</syllabic>
          <text>ti.</text>
          </lyric>
        <lyric number="2">
          <syllabic>end</syllabic>
          <text>kuu.</text>
          </lyric>
        <lyric number="3">
          <syllabic>end</syllabic>
          <text>kust.</text>
          </lyric>
        <lyric number="4">
          <syllabic>end</syllabic>
          <text>puu.</text>
          </lyric>
        </note>
      <note default-x="137.81" default-y="-25.00">
        <pitch>
          <step>A</step>
          <octave>4</octave>
          </pitch>
        <duration>2</duration>
        <voice>1</voice>
        <type>quarter</type>
        <stem>up</stem>
        <notations>
          <slur type="stop" number="1"/>
          </notations>
        </note>
      </measure>
    <measure number="13" width="210.68">
      <note>
        <rest/>
        <duration>4</duration>
        <voice>1</voice>
        </note>
      </measure>
    <measure number="14" width="216.68">
      <note>
        <rest/>
        <duration>4</duration>
        <voice>1</voice>
        </note>
      <barline location="right">
        <bar-style>light-heavy</bar-style>
        </barline>
      </measure>
    </part>
  </score-partwise>
