<?xml version="1.0" encoding="UTF-8"?>
<!DOCTYPE score-partwise PUBLIC "-//Recordare//DTD MusicXML 2.0 Partwise//EN" "http://www.musicxml.org/dtds/partwise.dtd">
<score-partwise>
  <identification>
    <encoding>
      <software>MuseScore 1.3</software>
      <encoding-date>2014-09-16</encoding-date>
      </encoding>
    </identification>
  <defaults>
    <scaling>
      <millimeters>7.056</millimeters>
      <tenths>40</tenths>
      </scaling>
    <page-layout>
      <page-height>1583.9</page-height>
      <page-width>1223.92</page-width>
      <page-margins type="even">
        <left-margin>56.6893</left-margin>
        <right-margin>56.6893</right-margin>
        <top-margin>56.6893</top-margin>
        <bottom-margin>113.379</bottom-margin>
        </page-margins>
      <page-margins type="odd">
        <left-margin>56.6893</left-margin>
        <right-margin>56.6893</right-margin>
        <top-margin>56.6893</top-margin>
        <bottom-margin>113.379</bottom-margin>
        </page-margins>
      </page-layout>
    </defaults>
  <credit page="1">
    <credit-words default-x="611.961" default-y="1527.21" font-size="24" justify="center" valign="top">Oh kuusepuu</credit-words>
    </credit>
  <credit page="1">
    <credit-words default-x="1167.23" default-y="1460.21" font-size="12" justify="right" valign="top">Saksa rahvaviis</credit-words>
    </credit>
  <credit page="1">
    <credit-words default-x="56.6893" default-y="1460.21" font-size="12" justify="left" valign="top">A. Zarnak</credit-words>
    </credit>
  <part-list>
    <score-part id="P1">
      <part-name></part-name>
      <score-instrument id="P1-I3">
        <instrument-name></instrument-name>
        </score-instrument>
      <midi-instrument id="P1-I3">
        <midi-channel>1</midi-channel>
        <midi-program>53</midi-program>
        <volume>78.7402</volume>
        <pan>0</pan>
        </midi-instrument>
      </score-part>
    </part-list>
  <part id="P1">
    <measure number="1" width="144.82">
      <print>
        <system-layout>
          <system-margins>
            <left-margin>2.50</left-margin>
            <right-margin>0.00</right-margin>
            </system-margins>
          <top-system-distance>274.00</top-system-distance>
          </system-layout>
        </print>
      <attributes>
        <divisions>4</divisions>
        <key>
          <fifths>-1</fifths>
          <mode>major</mode>
          </key>
        <time>
          <beats>3</beats>
          <beat-type>4</beat-type>
          </time>
        <clef>
          <sign>G</sign>
          <line>2</line>
          </clef>
        </attributes>
      <note default-x="98.88" default-y="-50.00">
        <pitch>
          <step>C</step>
          <octave>4</octave>
          </pitch>
        <duration>2</duration>
        <voice>1</voice>
        <type>eighth</type>
        <stem>up</stem>
        <lyric number="1">
          <syllabic>single</syllabic>
          <text>Oh</text>
          </lyric>
        <lyric number="2">
          <syllabic>single</syllabic>
          <text>Oh</text>
          </lyric>
        <lyric number="3">
          <syllabic>single</syllabic>
          <text>Oh</text>
          </lyric>
        <lyric number="4">
          <syllabic>single</syllabic>
          <text>Oh</text>
          </lyric>
        </note>
      </measure>
    <measure number="2" width="242.77">
      <note default-x="22.10" default-y="-35.00">
        <pitch>
          <step>F</step>
          <octave>4</octave>
          </pitch>
        <duration>3</duration>
        <voice>1</voice>
        <type>eighth</type>
        <dot/>
        <stem>up</stem>
        <beam number="1">begin</beam>
        <lyric number="1">
          <syllabic>begin</syllabic>
          <text>kuu</text>
          </lyric>
        <lyric number="2">
          <syllabic>begin</syllabic>
          <text>kuu</text>
          </lyric>
        <lyric number="3">
          <syllabic>begin</syllabic>
          <text>jõu</text>
          </lyric>
        <lyric number="4">
          <syllabic>begin</syllabic>
          <text>jõu</text>
          </lyric>
        </note>
      <note default-x="79.86" default-y="-35.00">
        <pitch>
          <step>F</step>
          <octave>4</octave>
          </pitch>
        <duration>1</duration>
        <voice>1</voice>
        <type>16th</type>
        <stem>up</stem>
        <beam number="1">end</beam>
        <beam number="2">backward hook</beam>
        <lyric number="1">
          <syllabic>middle</syllabic>
          <text>se</text>
          </lyric>
        <lyric number="2">
          <syllabic>middle</syllabic>
          <text>se</text>
          </lyric>
        <lyric number="3">
          <syllabic>middle</syllabic>
          <text>lu</text>
          </lyric>
        <lyric number="4">
          <syllabic>middle</syllabic>
          <text>lu</text>
          </lyric>
        </note>
      <note default-x="118.27" default-y="-35.00">
        <pitch>
          <step>F</step>
          <octave>4</octave>
          </pitch>
        <duration>6</duration>
        <voice>1</voice>
        <type>quarter</type>
        <dot/>
        <stem>up</stem>
        <lyric number="1">
          <syllabic>end</syllabic>
          <text>puu,</text>
          </lyric>
        <lyric number="2">
          <syllabic>end</syllabic>
          <text>puu,</text>
          </lyric>
        <lyric number="3">
          <syllabic>end</syllabic>
          <text>puu,</text>
          </lyric>
        <lyric number="4">
          <syllabic>end</syllabic>
          <text>puu,</text>
          </lyric>
        </note>
      <note default-x="193.80" default-y="-30.00">
        <pitch>
          <step>G</step>
          <octave>4</octave>
          </pitch>
        <duration>2</duration>
        <voice>1</voice>
        <type>eighth</type>
        <stem>up</stem>
        <lyric number="1">
          <syllabic>single</syllabic>
          <text>oh</text>
          </lyric>
        <lyric number="2">
          <syllabic>single</syllabic>
          <text>oh</text>
          </lyric>
        <lyric number="3">
          <syllabic>single</syllabic>
          <text>oh</text>
          </lyric>
        <lyric number="4">
          <syllabic>single</syllabic>
          <text>oh</text>
          </lyric>
        </note>
      </measure>
    <measure number="3" width="245.82">
      <note default-x="22.10" default-y="-25.00">
        <pitch>
          <step>A</step>
          <octave>4</octave>
          </pitch>
        <duration>3</duration>
        <voice>1</voice>
        <type>eighth</type>
        <dot/>
        <stem>up</stem>
        <beam number="1">begin</beam>
        <lyric number="1">
          <syllabic>begin</syllabic>
          <text>kuu</text>
          </lyric>
        <lyric number="2">
          <syllabic>begin</syllabic>
          <text>kuu</text>
          </lyric>
        <lyric number="3">
          <syllabic>begin</syllabic>
          <text>jõu</text>
          </lyric>
        <lyric number="4">
          <syllabic>begin</syllabic>
          <text>jõu</text>
          </lyric>
        </note>
      <note default-x="80.84" default-y="-25.00">
        <pitch>
          <step>A</step>
          <octave>4</octave>
          </pitch>
        <duration>1</duration>
        <voice>1</voice>
        <type>16th</type>
        <stem>up</stem>
        <beam number="1">end</beam>
        <beam number="2">backward hook</beam>
        <lyric number="1">
          <syllabic>middle</syllabic>
          <text>se</text>
          </lyric>
        <lyric number="2">
          <syllabic>middle</syllabic>
          <text>se</text>
          </lyric>
        <lyric number="3">
          <syllabic>middle</syllabic>
          <text>lu</text>
          </lyric>
        <lyric number="4">
          <syllabic>middle</syllabic>
          <text>lu</text>
          </lyric>
        </note>
      <note default-x="119.25" default-y="-25.00">
        <pitch>
          <step>A</step>
          <octave>4</octave>
          </pitch>
        <duration>6</duration>
        <voice>1</voice>
        <type>quarter</type>
        <dot/>
        <stem>up</stem>
        <lyric number="1">
          <syllabic>end</syllabic>
          <text>puu,</text>
          </lyric>
        <lyric number="2">
          <syllabic>end</syllabic>
          <text>puu,</text>
          </lyric>
        <lyric number="3">
          <syllabic>end</syllabic>
          <text>puu,</text>
          </lyric>
        <lyric number="4">
          <syllabic>end</syllabic>
          <text>puu,</text>
          </lyric>
        </note>
      <note default-x="196.05" default-y="-25.00">
        <pitch>
          <step>A</step>
          <octave>4</octave>
          </pitch>
        <duration>2</duration>
        <voice>1</voice>
        <type>eighth</type>
        <stem>up</stem>
        <lyric number="1">
          <syllabic>single</syllabic>
          <text>kui</text>
          </lyric>
        <lyric number="2">
          <syllabic>single</syllabic>
          <text>sa</text>
          </lyric>
        <lyric number="3">
          <syllabic>single</syllabic>
          <text>siit</text>
          </lyric>
        <lyric number="4">
          <syllabic>single</syllabic>
          <text>su</text>
          </lyric>
        </note>
      </measure>
    <measure number="4" width="246.81">
      <note default-x="19.02" default-y="-30.00">
        <pitch>
          <step>G</step>
          <octave>4</octave>
          </pitch>
        <duration>2</duration>
        <voice>1</voice>
        <type>eighth</type>
        <stem>up</stem>
        <beam number="1">begin</beam>
        <lyric number="1">
          <syllabic>begin</syllabic>
          <text>hal</text>
          </lyric>
        <lyric number="2">
          <syllabic>begin</syllabic>
          <text>o</text>
          </lyric>
        <lyric number="3">
          <syllabic>begin</syllabic>
          <text>i</text>
          </lyric>
        <lyric number="4">
          <syllabic>begin</syllabic>
          <text>val</text>
          </lyric>
        </note>
      <note default-x="62.52" default-y="-25.00">
        <pitch>
          <step>A</step>
          <octave>4</octave>
          </pitch>
        <duration>2</duration>
        <voice>1</voice>
        <type>eighth</type>
        <stem>up</stem>
        <beam number="1">end</beam>
        <lyric number="1">
          <syllabic>end</syllabic>
          <text>jad</text>
          </lyric>
        <lyric number="2">
          <syllabic>end</syllabic>
          <text>led</text>
          </lyric>
        <lyric number="3">
          <syllabic>middle</syllabic>
          <text>ga</text>
          </lyric>
        <lyric number="4">
          <syllabic>end</syllabic>
          <text>gus</text>
          </lyric>
        </note>
      <note default-x="106.02" default-y="-20.00">
        <pitch>
          <step>B</step>
          <alter>-1</alter>
          <octave>4</octave>
          </pitch>
        <duration>4</duration>
        <voice>1</voice>
        <type>quarter</type>
        <stem>down</stem>
        <lyric number="1">
          <syllabic>single</syllabic>
          <text>on</text>
          </lyric>
        <lyric number="2">
          <syllabic>begin</syllabic>
          <text>mul</text>
          </lyric>
        <lyric number="3">
          <syllabic>end</syllabic>
          <text>üks</text>
          </lyric>
        <lyric number="4">
          <syllabic>single</syllabic>
          <text>on</text>
          </lyric>
        </note>
      <note default-x="175.61" default-y="-40.00">
        <pitch>
          <step>E</step>
          <octave>4</octave>
          </pitch>
        <duration>4</duration>
        <voice>1</voice>
        <type>quarter</type>
        <stem>up</stem>
        <lyric number="1">
          <syllabic>single</syllabic>
          <text>su</text>
          </lyric>
        <lyric number="2">
          <syllabic>end</syllabic>
          <text>le</text>
          </lyric>
        <lyric number="3">
          <syllabic>single</syllabic>
          <text>saab</text>
          </lyric>
        <lyric number="4">
          <syllabic>single</syllabic>
          <text>nii</text>
          </lyric>
        </note>
      </measure>
    <measure number="5" width="227.83">
      <note default-x="20.26" default-y="-30.00">
        <pitch>
          <step>G</step>
          <octave>4</octave>
          </pitch>
        <duration>4</duration>
        <voice>1</voice>
        <type>quarter</type>
        <stem>up</stem>
        <lyric number="1">
          <syllabic>begin</syllabic>
          <text>ok</text>
          </lyric>
        <lyric number="2">
          <syllabic>begin</syllabic>
          <text>ar</text>
          </lyric>
        <lyric number="3">
          <syllabic>begin</syllabic>
          <text>rõõ</text>
          </lyric>
        <lyric number="4">
          <syllabic>begin</syllabic>
          <text>hiil</text>
          </lyric>
        </note>
      <note default-x="83.63" default-y="-35.00">
        <pitch>
          <step>F</step>
          <octave>4</octave>
          </pitch>
        <duration>4</duration>
        <voice>1</voice>
        <type>quarter</type>
        <stem>up</stem>
        <lyric number="1">
          <syllabic>end</syllabic>
          <text>sad!</text>
          </lyric>
        <lyric number="2">
          <syllabic>end</syllabic>
          <text>mas!</text>
          </lyric>
        <lyric number="3">
          <syllabic>end</syllabic>
          <text>mu!</text>
          </lyric>
        <lyric number="4">
          <syllabic>end</syllabic>
          <text>gav!</text>
          </lyric>
        </note>
      <note>
        <rest/>
        <duration>2</duration>
        <voice>1</voice>
        <type>eighth</type>
        </note>
      <note default-x="186.62" default-y="-50.00">
        <pitch>
          <step>C</step>
          <octave>4</octave>
          </pitch>
        <duration>2</duration>
        <voice>1</voice>
        <type>eighth</type>
        <stem>up</stem>
        <lyric number="1">
          <syllabic>single</syllabic>
          <text>Oh</text>
          </lyric>
        <lyric number="2">
          <syllabic>single</syllabic>
          <text>Oh</text>
          </lyric>
        <lyric number="3">
          <syllabic>single</syllabic>
          <text>Oh</text>
          </lyric>
        <lyric number="4">
          <syllabic>single</syllabic>
          <text>Oh</text>
          </lyric>
        </note>
      </measure>
    <measure number="6" width="267.39">
      <print new-system="yes">
        <system-layout>
          <system-margins>
            <left-margin>2.50</left-margin>
            <right-margin>0.00</right-margin>
            </system-margins>
          <system-distance>274.08</system-distance>
          </system-layout>
        </print>
      <note default-x="80.85" default-y="-35.00">
        <pitch>
          <step>F</step>
          <octave>4</octave>
          </pitch>
        <duration>3</duration>
        <voice>1</voice>
        <type>eighth</type>
        <dot/>
        <stem>up</stem>
        <beam number="1">begin</beam>
        <lyric number="1">
          <syllabic>begin</syllabic>
          <text>kuu</text>
          </lyric>
        <lyric number="2">
          <syllabic>begin</syllabic>
          <text>kuu</text>
          </lyric>
        <lyric number="3">
          <syllabic>begin</syllabic>
          <text>jõu</text>
          </lyric>
        <lyric number="4">
          <syllabic>begin</syllabic>
          <text>jõu</text>
          </lyric>
        </note>
      <note default-x="127.70" default-y="-35.00">
        <pitch>
          <step>F</step>
          <octave>4</octave>
          </pitch>
        <duration>1</duration>
        <voice>1</voice>
        <type>16th</type>
        <stem>up</stem>
        <beam number="1">end</beam>
        <beam number="2">backward hook</beam>
        <lyric number="1">
          <syllabic>middle</syllabic>
          <text>se</text>
          </lyric>
        <lyric number="2">
          <syllabic>middle</syllabic>
          <text>se</text>
          </lyric>
        <lyric number="3">
          <syllabic>middle</syllabic>
          <text>lu</text>
          </lyric>
        <lyric number="4">
          <syllabic>middle</syllabic>
          <text>lu</text>
          </lyric>
        </note>
      <note default-x="166.11" default-y="-35.00">
        <pitch>
          <step>F</step>
          <octave>4</octave>
          </pitch>
        <duration>6</duration>
        <voice>1</voice>
        <type>quarter</type>
        <dot/>
        <stem>up</stem>
        <lyric number="1">
          <syllabic>end</syllabic>
          <text>puu,</text>
          </lyric>
        <lyric number="2">
          <syllabic>end</syllabic>
          <text>puu,</text>
          </lyric>
        <lyric number="3">
          <syllabic>end</syllabic>
          <text>puu,</text>
          </lyric>
        <lyric number="4">
          <syllabic>end</syllabic>
          <text>puu,</text>
          </lyric>
        </note>
      <note default-x="227.37" default-y="-30.00">
        <pitch>
          <step>G</step>
          <octave>4</octave>
          </pitch>
        <duration>2</duration>
        <voice>1</voice>
        <type>eighth</type>
        <stem>up</stem>
        <lyric number="1">
          <syllabic>single</syllabic>
          <text>oh</text>
          </lyric>
        <lyric number="2">
          <syllabic>single</syllabic>
          <text>oh</text>
          </lyric>
        <lyric number="3">
          <syllabic>single</syllabic>
          <text>oh</text>
          </lyric>
        <lyric number="4">
          <syllabic>single</syllabic>
          <text>oh</text>
          </lyric>
        </note>
      </measure>
    <measure number="7" width="211.68">
      <note default-x="22.10" default-y="-25.00">
        <pitch>
          <step>A</step>
          <octave>4</octave>
          </pitch>
        <duration>3</duration>
        <voice>1</voice>
        <type>eighth</type>
        <dot/>
        <stem>up</stem>
        <beam number="1">begin</beam>
        <lyric number="1">
          <syllabic>begin</syllabic>
          <text>kuu</text>
          </lyric>
        <lyric number="2">
          <syllabic>begin</syllabic>
          <text>kuu</text>
          </lyric>
        <lyric number="3">
          <syllabic>begin</syllabic>
          <text>jõu</text>
          </lyric>
        <lyric number="4">
          <syllabic>begin</syllabic>
          <text>jõu</text>
          </lyric>
        </note>
      <note default-x="69.92" default-y="-25.00">
        <pitch>
          <step>A</step>
          <octave>4</octave>
          </pitch>
        <duration>1</duration>
        <voice>1</voice>
        <type>16th</type>
        <stem>up</stem>
        <beam number="1">end</beam>
        <beam number="2">backward hook</beam>
        <lyric number="1">
          <syllabic>middle</syllabic>
          <text>se</text>
          </lyric>
        <lyric number="2">
          <syllabic>middle</syllabic>
          <text>se</text>
          </lyric>
        <lyric number="3">
          <syllabic>middle</syllabic>
          <text>lu</text>
          </lyric>
        <lyric number="4">
          <syllabic>middle</syllabic>
          <text>lu</text>
          </lyric>
        </note>
      <note default-x="108.33" default-y="-25.00">
        <pitch>
          <step>A</step>
          <octave>4</octave>
          </pitch>
        <duration>6</duration>
        <voice>1</voice>
        <type>quarter</type>
        <dot/>
        <stem>up</stem>
        <lyric number="1">
          <syllabic>end</syllabic>
          <text>puu,</text>
          </lyric>
        <lyric number="2">
          <syllabic>end</syllabic>
          <text>puu,</text>
          </lyric>
        <lyric number="3">
          <syllabic>end</syllabic>
          <text>puu,</text>
          </lyric>
        <lyric number="4">
          <syllabic>end</syllabic>
          <text>puu,</text>
          </lyric>
        </note>
      <note default-x="170.86" default-y="-25.00">
        <pitch>
          <step>A</step>
          <octave>4</octave>
          </pitch>
        <duration>2</duration>
        <voice>1</voice>
        <type>eighth</type>
        <stem>up</stem>
        <lyric number="1">
          <syllabic>single</syllabic>
          <text>kui</text>
          </lyric>
        <lyric number="2">
          <syllabic>single</syllabic>
          <text>sa</text>
          </lyric>
        <lyric number="3">
          <syllabic>single</syllabic>
          <text>siit</text>
          </lyric>
        <lyric number="4">
          <syllabic>single</syllabic>
          <text>su</text>
          </lyric>
        </note>
      </measure>
    <measure number="8" width="212.68">
      <note default-x="19.02" default-y="-30.00">
        <pitch>
          <step>G</step>
          <octave>4</octave>
          </pitch>
        <duration>2</duration>
        <voice>1</voice>
        <type>eighth</type>
        <stem>up</stem>
        <beam number="1">begin</beam>
        <lyric number="1">
          <syllabic>begin</syllabic>
          <text>hal</text>
          </lyric>
        <lyric number="2">
          <syllabic>begin</syllabic>
          <text>o</text>
          </lyric>
        <lyric number="3">
          <syllabic>begin</syllabic>
          <text>i</text>
          </lyric>
        <lyric number="4">
          <syllabic>begin</syllabic>
          <text>val</text>
          </lyric>
        </note>
      <note default-x="55.71" default-y="-25.00">
        <pitch>
          <step>A</step>
          <octave>4</octave>
          </pitch>
        <duration>2</duration>
        <voice>1</voice>
        <type>eighth</type>
        <stem>up</stem>
        <beam number="1">end</beam>
        <lyric number="1">
          <syllabic>end</syllabic>
          <text>jad</text>
          </lyric>
        <lyric number="2">
          <syllabic>end</syllabic>
          <text>led</text>
          </lyric>
        <lyric number="3">
          <syllabic>middle</syllabic>
          <text>ga</text>
          </lyric>
        <lyric number="4">
          <syllabic>end</syllabic>
          <text>gus</text>
          </lyric>
        </note>
      <note default-x="96.06" default-y="-20.00">
        <pitch>
          <step>B</step>
          <alter>-1</alter>
          <octave>4</octave>
          </pitch>
        <duration>4</duration>
        <voice>1</voice>
        <type>quarter</type>
        <stem>down</stem>
        <lyric number="1">
          <syllabic>single</syllabic>
          <text>on</text>
          </lyric>
        <lyric number="2">
          <syllabic>begin</syllabic>
          <text>mul</text>
          </lyric>
        <lyric number="3">
          <syllabic>end</syllabic>
          <text>üks</text>
          </lyric>
        <lyric number="4">
          <syllabic>single</syllabic>
          <text>on</text>
          </lyric>
        </note>
      <note default-x="153.57" default-y="-40.00">
        <pitch>
          <step>E</step>
          <octave>4</octave>
          </pitch>
        <duration>4</duration>
        <voice>1</voice>
        <type>quarter</type>
        <stem>up</stem>
        <lyric number="1">
          <syllabic>single</syllabic>
          <text>su</text>
          </lyric>
        <lyric number="2">
          <syllabic>end</syllabic>
          <text>le</text>
          </lyric>
        <lyric number="3">
          <syllabic>single</syllabic>
          <text>saab</text>
          </lyric>
        <lyric number="4">
          <syllabic>single</syllabic>
          <text>nii</text>
          </lyric>
        </note>
      </measure>
    <measure number="9" width="200.43">
      <note default-x="20.26" default-y="-30.00">
        <pitch>
          <step>G</step>
          <octave>4</octave>
          </pitch>
        <duration>4</duration>
        <voice>1</voice>
        <type>quarter</type>
        <stem>up</stem>
        <lyric number="1">
          <syllabic>begin</syllabic>
          <text>ok</text>
          </lyric>
        <lyric number="2">
          <syllabic>begin</syllabic>
          <text>ar</text>
          </lyric>
        <lyric number="3">
          <syllabic>begin</syllabic>
          <text>rõõ</text>
          </lyric>
        <lyric number="4">
          <syllabic>begin</syllabic>
          <text>hiil</text>
          </lyric>
        </note>
      <note default-x="74.50" default-y="-35.00">
        <pitch>
          <step>F</step>
          <octave>4</octave>
          </pitch>
        <duration>4</duration>
        <voice>1</voice>
        <type>quarter</type>
        <stem>up</stem>
        <lyric number="1">
          <syllabic>end</syllabic>
          <text>sad!</text>
          </lyric>
        <lyric number="2">
          <syllabic>end</syllabic>
          <text>mas!</text>
          </lyric>
        <lyric number="3">
          <syllabic>end</syllabic>
          <text>mu!</text>
          </lyric>
        <lyric number="4">
          <syllabic>end</syllabic>
          <text>gav!</text>
          </lyric>
        </note>
      <note>
        <rest/>
        <duration>2</duration>
        <voice>1</voice>
        <type>eighth</type>
        </note>
      <note default-x="164.92" default-y="-15.00">
        <pitch>
          <step>C</step>
          <octave>5</octave>
          </pitch>
        <duration>2</duration>
        <voice>1</voice>
        <type>eighth</type>
        <stem>down</stem>
        <lyric number="1">
          <syllabic>single</syllabic>
          <text>Ei</text>
          </lyric>
        <lyric number="2">
          <syllabic>single</syllabic>
          <text>Sind</text>
          </lyric>
        <lyric number="3">
          <syllabic>single</syllabic>
          <text>Su</text>
          </lyric>
        <lyric number="4">
          <syllabic>single</syllabic>
          <text>Veel</text>
          </lyric>
        </note>
      </measure>
    <measure number="10" width="215.87">
      <note default-x="20.24" default-y="-15.00">
        <pitch>
          <step>C</step>
          <octave>5</octave>
          </pitch>
        <duration>2</duration>
        <voice>1</voice>
        <type>eighth</type>
        <stem>up</stem>
        <beam number="1">begin</beam>
        <lyric number="1">
          <syllabic>begin</syllabic>
          <text>mit</text>
          </lyric>
        <lyric number="2">
          <syllabic>begin</syllabic>
          <text>jõu</text>
          </lyric>
        <lyric number="3">
          <syllabic>begin</syllabic>
          <text>juu</text>
          </lyric>
        <lyric number="4">
          <syllabic>begin</syllabic>
          <text>kir</text>
          </lyric>
        </note>
      <note default-x="61.80" default-y="-25.00">
        <pitch>
          <step>A</step>
          <octave>4</octave>
          </pitch>
        <duration>2</duration>
        <voice>1</voice>
        <type>eighth</type>
        <stem>up</stem>
        <beam number="1">end</beam>
        <lyric number="1">
          <syllabic>end</syllabic>
          <text>te</text>
          </lyric>
        <lyric number="2">
          <syllabic>end</syllabic>
          <text>luks</text>
          </lyric>
        <lyric number="3">
          <syllabic>end</syllabic>
          <text>res</text>
          </lyric>
        <lyric number="4">
          <syllabic>end</syllabic>
          <text>kam</text>
          </lyric>
        </note>
      <note default-x="105.19" default-y="-10.00">
        <pitch>
          <step>D</step>
          <octave>5</octave>
          </pitch>
        <duration>6</duration>
        <voice>1</voice>
        <type>quarter</type>
        <dot/>
        <stem>down</stem>
        <lyric number="1">
          <syllabic>begin</syllabic>
          <text>ük</text>
          </lyric>
        <lyric number="2">
          <syllabic>begin</syllabic>
          <text>met</text>
          </lyric>
        <lyric number="3">
          <syllabic>begin</syllabic>
          <text>lap</text>
          </lyric>
        <lyric number="4">
          <syllabic>begin</syllabic>
          <text>val</text>
          </lyric>
        </note>
      <note default-x="177.31" default-y="-15.00">
        <pitch>
          <step>C</step>
          <octave>5</octave>
          </pitch>
        <duration>2</duration>
        <voice>1</voice>
        <type>eighth</type>
        <stem>down</stem>
        <lyric number="1">
          <syllabic>end</syllabic>
          <text>si</text>
          </lyric>
        <lyric number="2">
          <syllabic>end</syllabic>
          <text>sst</text>
          </lyric>
        <lyric number="3">
          <syllabic>end</syllabic>
          <text>sed</text>
          </lyric>
        <lyric number="4">
          <syllabic>end</syllabic>
          <text>gus</text>
          </lyric>
        </note>
      </measure>
    <measure number="11" width="309.38">
      <print new-system="yes">
        <system-layout>
          <system-margins>
            <left-margin>2.50</left-margin>
            <right-margin>0.00</right-margin>
            </system-margins>
          <system-distance>274.08</system-distance>
          </system-layout>
        </print>
      <note default-x="78.40" default-y="-15.00">
        <pitch>
          <step>C</step>
          <octave>5</octave>
          </pitch>
        <duration>2</duration>
        <voice>1</voice>
        <type>eighth</type>
        <stem>down</stem>
        <beam number="1">begin</beam>
        <lyric number="1">
          <syllabic>begin</syllabic>
          <text>sui</text>
          </lyric>
        <lyric number="2">
          <syllabic>begin</syllabic>
          <text>tuu</text>
          </lyric>
        <lyric number="3">
          <syllabic>begin</syllabic>
          <text>lau</text>
          </lyric>
        <lyric number="4">
          <syllabic>begin</syllabic>
          <text>sel</text>
          </lyric>
        </note>
      <note default-x="124.73" default-y="-20.00">
        <pitch>
          <step>B</step>
          <alter>-1</alter>
          <octave>4</octave>
          </pitch>
        <duration>2</duration>
        <voice>1</voice>
        <type>eighth</type>
        <stem>down</stem>
        <beam number="1">end</beam>
        <lyric number="1">
          <syllabic>end</syllabic>
          <text>sel</text>
          </lyric>
        <lyric number="2">
          <syllabic>middle</syllabic>
          <text>ak</text>
          </lyric>
        <lyric number="3">
          <syllabic>middle</syllabic>
          <text>la</text>
          </lyric>
        <lyric number="4">
          <syllabic>end</syllabic>
          <text>lel</text>
          </lyric>
        </note>
      <note default-x="171.06" default-y="-20.00">
        <pitch>
          <step>B</step>
          <alter>-1</alter>
          <octave>4</octave>
          </pitch>
        <duration>6</duration>
        <voice>1</voice>
        <type>quarter</type>
        <dot/>
        <stem>down</stem>
        <lyric number="1">
          <syllabic>single</syllabic>
          <text>a&apos;al,</text>
          </lyric>
        <lyric number="2">
          <syllabic>end</syllabic>
          <text>se</text>
          </lyric>
        <lyric number="3">
          <syllabic>end</syllabic>
          <text>vad</text>
          </lyric>
        <lyric number="4">
          <syllabic>single</syllabic>
          <text>ees,</text>
          </lyric>
        </note>
      <note default-x="261.45" default-y="-20.00">
        <pitch>
          <step>B</step>
          <alter>-1</alter>
          <octave>4</octave>
          </pitch>
        <duration>2</duration>
        <voice>1</voice>
        <type>eighth</type>
        <stem>down</stem>
        <lyric number="1">
          <syllabic>single</syllabic>
          <text>vaid</text>
          </lyric>
        <lyric number="2">
          <syllabic>single</syllabic>
          <text>ja</text>
          </lyric>
        <lyric number="3">
          <syllabic>single</syllabic>
          <text>ja</text>
          </lyric>
        <lyric number="4">
          <syllabic>single</syllabic>
          <text>kes</text>
          </lyric>
        </note>
      </measure>
    <measure number="12" width="265.41">
      <note default-x="28.80" default-y="-20.00">
        <pitch>
          <step>B</step>
          <alter>-1</alter>
          <octave>4</octave>
          </pitch>
        <duration>2</duration>
        <voice>1</voice>
        <type>eighth</type>
        <stem>up</stem>
        <beam number="1">begin</beam>
        <lyric number="1">
          <syllabic>begin</syllabic>
          <text>tal</text>
          </lyric>
        <lyric number="2">
          <syllabic>begin</syllabic>
          <text>küün</text>
          </lyric>
        <lyric number="3">
          <syllabic>begin</syllabic>
          <text>rõõm</text>
          </lyric>
        <lyric number="4">
          <syllabic>begin</syllabic>
          <text>tae</text>
          </lyric>
        </note>
      <note default-x="76.27" default-y="-30.00">
        <pitch>
          <step>G</step>
          <octave>4</octave>
          </pitch>
        <duration>2</duration>
        <voice>1</voice>
        <type>eighth</type>
        <stem>up</stem>
        <beam number="1">end</beam>
        <lyric number="1">
          <syllabic>end</syllabic>
          <text>vel</text>
          </lyric>
        <lyric number="2">
          <syllabic>end</syllabic>
          <text>lad</text>
          </lyric>
        <lyric number="3">
          <syllabic>end</syllabic>
          <text>salt</text>
          </lyric>
        <lyric number="4">
          <syllabic>end</syllabic>
          <text>va</text>
          </lyric>
        </note>
      <note default-x="123.74" default-y="-15.00">
        <pitch>
          <step>C</step>
          <octave>5</octave>
          </pitch>
        <duration>6</duration>
        <voice>1</voice>
        <type>quarter</type>
        <dot/>
        <stem>down</stem>
        <lyric number="1">
          <syllabic>single</syllabic>
          <text>ka</text>
          </lyric>
        <lyric number="2">
          <syllabic>begin</syllabic>
          <text>kül</text>
          </lyric>
        <lyric number="3">
          <syllabic>begin</syllabic>
          <text>kin</text>
          </lyric>
        <lyric number="4">
          <syllabic>begin</syllabic>
          <text>lei</text>
          </lyric>
        </note>
      <note default-x="216.34" default-y="-20.00">
        <pitch>
          <step>B</step>
          <alter>-1</alter>
          <octave>4</octave>
          </pitch>
        <duration>2</duration>
        <voice>1</voice>
        <type>eighth</type>
        <stem>down</stem>
        <lyric number="1">
          <syllabic>single</syllabic>
          <text>siin</text>
          </lyric>
        <lyric number="2">
          <syllabic>end</syllabic>
          <text>ge</text>
          </lyric>
        <lyric number="3">
          <syllabic>end</syllabic>
          <text>ke</text>
          </lyric>
        <lyric number="4">
          <syllabic>end</syllabic>
          <text>ab</text>
          </lyric>
        </note>
      </measure>
    <measure number="13" width="283.59">
      <note default-x="21.47" default-y="-20.00">
        <pitch>
          <step>B</step>
          <alter>-1</alter>
          <octave>4</octave>
          </pitch>
        <duration>2</duration>
        <voice>1</voice>
        <type>eighth</type>
        <stem>up</stem>
        <beam number="1">begin</beam>
        <lyric number="1">
          <syllabic>begin</syllabic>
          <text>kül</text>
          </lyric>
        <lyric number="2">
          <syllabic>begin</syllabic>
          <text>pan</text>
          </lyric>
        <lyric number="3">
          <syllabic>begin</syllabic>
          <text>oo</text>
          </lyric>
        <lyric number="4">
          <syllabic>begin</syllabic>
          <text>Jee</text>
          </lyric>
        </note>
      <note default-x="67.55" default-y="-25.00">
        <pitch>
          <step>A</step>
          <octave>4</octave>
          </pitch>
        <duration>2</duration>
        <voice>1</voice>
        <type>eighth</type>
        <stem>up</stem>
        <beam number="1">end</beam>
        <lyric number="1">
          <syllabic>end</syllabic>
          <text>mal</text>
          </lyric>
        <lyric number="2">
          <syllabic>middle</syllabic>
          <text>nak</text>
          </lyric>
        <lyric number="3">
          <syllabic>middle</syllabic>
          <text>ta</text>
          </lyric>
        <lyric number="4">
          <syllabic>middle</syllabic>
          <text>su</text>
          </lyric>
        </note>
      <note default-x="116.11" default-y="-25.00">
        <pitch>
          <step>A</step>
          <octave>4</octave>
          </pitch>
        <duration>4</duration>
        <voice>1</voice>
        <type>quarter</type>
        <stem>up</stem>
        <lyric number="1">
          <syllabic>single</syllabic>
          <text>maal.</text>
          </lyric>
        <lyric number="2">
          <syllabic>end</syllabic>
          <text>se.</text>
          </lyric>
        <lyric number="3">
          <syllabic>end</syllabic>
          <text>vad.</text>
          </lyric>
        <lyric number="4">
          <syllabic>end</syllabic>
          <text>ses.</text>
          </lyric>
        </note>
      <note>
        <rest/>
        <duration>2</duration>
        <voice>1</voice>
        <type>eighth</type>
        </note>
      <note default-x="235.91" default-y="-50.00">
        <pitch>
          <step>C</step>
          <octave>4</octave>
          </pitch>
        <duration>2</duration>
        <voice>1</voice>
        <type>eighth</type>
        <stem>up</stem>
        <lyric number="1">
          <syllabic>single</syllabic>
          <text>Oh</text>
          </lyric>
        <lyric number="2">
          <syllabic>single</syllabic>
          <text>Oh</text>
          </lyric>
        <lyric number="3">
          <syllabic>single</syllabic>
          <text>Oh</text>
          </lyric>
        <lyric number="4">
          <syllabic>single</syllabic>
          <text>Oh</text>
          </lyric>
        </note>
      </measure>
    <measure number="14" width="249.66">
      <note default-x="22.10" default-y="-35.00">
        <pitch>
          <step>F</step>
          <octave>4</octave>
          </pitch>
        <duration>3</duration>
        <voice>1</voice>
        <type>eighth</type>
        <dot/>
        <stem>up</stem>
        <beam number="1">begin</beam>
        <lyric number="1">
          <syllabic>begin</syllabic>
          <text>kuu</text>
          </lyric>
        <lyric number="2">
          <syllabic>begin</syllabic>
          <text>kuu</text>
          </lyric>
        <lyric number="3">
          <syllabic>begin</syllabic>
          <text>jõu</text>
          </lyric>
        <lyric number="4">
          <syllabic>begin</syllabic>
          <text>jõu</text>
          </lyric>
        </note>
      <note default-x="82.06" default-y="-35.00">
        <pitch>
          <step>F</step>
          <octave>4</octave>
          </pitch>
        <duration>1</duration>
        <voice>1</voice>
        <type>16th</type>
        <stem>up</stem>
        <beam number="1">end</beam>
        <beam number="2">backward hook</beam>
        <lyric number="1">
          <syllabic>middle</syllabic>
          <text>se</text>
          </lyric>
        <lyric number="2">
          <syllabic>middle</syllabic>
          <text>se</text>
          </lyric>
        <lyric number="3">
          <syllabic>middle</syllabic>
          <text>lu</text>
          </lyric>
        <lyric number="4">
          <syllabic>middle</syllabic>
          <text>lu</text>
          </lyric>
        </note>
      <note default-x="120.48" default-y="-35.00">
        <pitch>
          <step>F</step>
          <octave>4</octave>
          </pitch>
        <duration>6</duration>
        <voice>1</voice>
        <type>quarter</type>
        <dot/>
        <stem>up</stem>
        <lyric number="1">
          <syllabic>end</syllabic>
          <text>puu,</text>
          </lyric>
        <lyric number="2">
          <syllabic>end</syllabic>
          <text>puu,</text>
          </lyric>
        <lyric number="3">
          <syllabic>end</syllabic>
          <text>puu,</text>
          </lyric>
        <lyric number="4">
          <syllabic>end</syllabic>
          <text>puu,</text>
          </lyric>
        </note>
      <note default-x="198.88" default-y="-30.00">
        <pitch>
          <step>G</step>
          <octave>4</octave>
          </pitch>
        <duration>2</duration>
        <voice>1</voice>
        <type>eighth</type>
        <stem>up</stem>
        <lyric number="1">
          <syllabic>single</syllabic>
          <text>oh</text>
          </lyric>
        <lyric number="2">
          <syllabic>single</syllabic>
          <text>oh</text>
          </lyric>
        <lyric number="3">
          <syllabic>single</syllabic>
          <text>oh</text>
          </lyric>
        <lyric number="4">
          <syllabic>single</syllabic>
          <text>oh</text>
          </lyric>
        </note>
      </measure>
    <measure number="15" width="426.22">
      <print new-system="yes">
        <system-layout>
          <system-margins>
            <left-margin>2.50</left-margin>
            <right-margin>0.00</right-margin>
            </system-margins>
          <system-distance>274.08</system-distance>
          </system-layout>
        </print>
      <note default-x="80.85" default-y="-25.00">
        <pitch>
          <step>A</step>
          <octave>4</octave>
          </pitch>
        <duration>3</duration>
        <voice>1</voice>
        <type>eighth</type>
        <dot/>
        <stem>up</stem>
        <beam number="1">begin</beam>
        <lyric number="1">
          <syllabic>begin</syllabic>
          <text>kuu</text>
          </lyric>
        <lyric number="2">
          <syllabic>begin</syllabic>
          <text>kuu</text>
          </lyric>
        <lyric number="3">
          <syllabic>begin</syllabic>
          <text>jõu</text>
          </lyric>
        <lyric number="4">
          <syllabic>begin</syllabic>
          <text>jõu</text>
          </lyric>
        </note>
      <note default-x="175.29" default-y="-25.00">
        <pitch>
          <step>A</step>
          <octave>4</octave>
          </pitch>
        <duration>1</duration>
        <voice>1</voice>
        <type>16th</type>
        <stem>up</stem>
        <beam number="1">end</beam>
        <beam number="2">backward hook</beam>
        <lyric number="1">
          <syllabic>middle</syllabic>
          <text>se</text>
          </lyric>
        <lyric number="2">
          <syllabic>middle</syllabic>
          <text>se</text>
          </lyric>
        <lyric number="3">
          <syllabic>middle</syllabic>
          <text>lu</text>
          </lyric>
        <lyric number="4">
          <syllabic>middle</syllabic>
          <text>lu</text>
          </lyric>
        </note>
      <note default-x="223.69" default-y="-25.00">
        <pitch>
          <step>A</step>
          <octave>4</octave>
          </pitch>
        <duration>6</duration>
        <voice>1</voice>
        <type>quarter</type>
        <dot/>
        <stem>up</stem>
        <lyric number="1">
          <syllabic>end</syllabic>
          <text>puu,</text>
          </lyric>
        <lyric number="2">
          <syllabic>end</syllabic>
          <text>puu,</text>
          </lyric>
        <lyric number="3">
          <syllabic>end</syllabic>
          <text>puu,</text>
          </lyric>
        <lyric number="4">
          <syllabic>end</syllabic>
          <text>puu,</text>
          </lyric>
        </note>
      <note default-x="347.17" default-y="-25.00">
        <pitch>
          <step>A</step>
          <octave>4</octave>
          </pitch>
        <duration>2</duration>
        <voice>1</voice>
        <type>eighth</type>
        <stem>up</stem>
        <lyric number="1">
          <syllabic>single</syllabic>
          <text>kui</text>
          </lyric>
        <lyric number="2">
          <syllabic>single</syllabic>
          <text>sa</text>
          </lyric>
        <lyric number="3">
          <syllabic>single</syllabic>
          <text>siit</text>
          </lyric>
        <lyric number="4">
          <syllabic>single</syllabic>
          <text>su</text>
          </lyric>
        </note>
      </measure>
    <measure number="16" width="368.46">
      <note default-x="19.02" default-y="-30.00">
        <pitch>
          <step>G</step>
          <octave>4</octave>
          </pitch>
        <duration>2</duration>
        <voice>1</voice>
        <type>eighth</type>
        <stem>up</stem>
        <beam number="1">begin</beam>
        <lyric number="1">
          <syllabic>begin</syllabic>
          <text>hal</text>
          </lyric>
        <lyric number="2">
          <syllabic>begin</syllabic>
          <text>o</text>
          </lyric>
        <lyric number="3">
          <syllabic>begin</syllabic>
          <text>i</text>
          </lyric>
        <lyric number="4">
          <syllabic>begin</syllabic>
          <text>val</text>
          </lyric>
        </note>
      <note default-x="85.91" default-y="-25.00">
        <pitch>
          <step>A</step>
          <octave>4</octave>
          </pitch>
        <duration>2</duration>
        <voice>1</voice>
        <type>eighth</type>
        <stem>up</stem>
        <beam number="1">end</beam>
        <lyric number="1">
          <syllabic>end</syllabic>
          <text>jad</text>
          </lyric>
        <lyric number="2">
          <syllabic>end</syllabic>
          <text>led</text>
          </lyric>
        <lyric number="3">
          <syllabic>middle</syllabic>
          <text>ga</text>
          </lyric>
        <lyric number="4">
          <syllabic>end</syllabic>
          <text>gus</text>
          </lyric>
        </note>
      <note default-x="152.80" default-y="-20.00">
        <pitch>
          <step>B</step>
          <alter>-1</alter>
          <octave>4</octave>
          </pitch>
        <duration>4</duration>
        <voice>1</voice>
        <type>quarter</type>
        <stem>down</stem>
        <lyric number="1">
          <syllabic>single</syllabic>
          <text>on</text>
          </lyric>
        <lyric number="2">
          <syllabic>begin</syllabic>
          <text>mul</text>
          </lyric>
        <lyric number="3">
          <syllabic>end</syllabic>
          <text>üks</text>
          </lyric>
        <lyric number="4">
          <syllabic>single</syllabic>
          <text>on</text>
          </lyric>
        </note>
      <note default-x="259.83" default-y="-40.00">
        <pitch>
          <step>E</step>
          <octave>4</octave>
          </pitch>
        <duration>4</duration>
        <voice>1</voice>
        <type>quarter</type>
        <stem>up</stem>
        <lyric number="1">
          <syllabic>single</syllabic>
          <text>su</text>
          </lyric>
        <lyric number="2">
          <syllabic>end</syllabic>
          <text>le</text>
          </lyric>
        <lyric number="3">
          <syllabic>single</syllabic>
          <text>saab</text>
          </lyric>
        <lyric number="4">
          <syllabic>single</syllabic>
          <text>nii</text>
          </lyric>
        </note>
      </measure>
    <measure number="17" width="313.37">
      <note default-x="20.26" default-y="-30.00">
        <pitch>
          <step>G</step>
          <octave>4</octave>
          </pitch>
        <duration>4</duration>
        <voice>1</voice>
        <type>quarter</type>
        <stem>up</stem>
        <lyric number="1">
          <syllabic>begin</syllabic>
          <text>ok</text>
          </lyric>
        <lyric number="2">
          <syllabic>begin</syllabic>
          <text>ar</text>
          </lyric>
        <lyric number="3">
          <syllabic>begin</syllabic>
          <text>rõõ</text>
          </lyric>
        <lyric number="4">
          <syllabic>begin</syllabic>
          <text>hiil</text>
          </lyric>
        </note>
      <note default-x="115.43" default-y="-35.00">
        <pitch>
          <step>F</step>
          <octave>4</octave>
          </pitch>
        <duration>4</duration>
        <voice>1</voice>
        <type>quarter</type>
        <stem>up</stem>
        <lyric number="1">
          <syllabic>end</syllabic>
          <text>sad!</text>
          </lyric>
        <lyric number="2">
          <syllabic>end</syllabic>
          <text>mas!</text>
          </lyric>
        <lyric number="3">
          <syllabic>end</syllabic>
          <text>mu!</text>
          </lyric>
        <lyric number="4">
          <syllabic>end</syllabic>
          <text>gav!</text>
          </lyric>
        </note>
      <note>
        <rest/>
        <duration>4</duration>
        <voice>1</voice>
        <type>quarter</type>
        </note>
      <barline location="right">
        <bar-style>light-heavy</bar-style>
        </barline>
      </measure>
    </part>
  </score-partwise>
