<?xml version="1.0" encoding="UTF-8"?>
<!DOCTYPE score-partwise PUBLIC "-//Recordare//DTD MusicXML 2.0 Partwise//EN" "http://www.musicxml.org/dtds/partwise.dtd">
<score-partwise>
  <identification>
    <encoding>
      <software>MuseScore 1.3</software>
      <encoding-date>2014-09-16</encoding-date>
      </encoding>
    </identification>
  <defaults>
    <scaling>
      <millimeters>7.056</millimeters>
      <tenths>40</tenths>
      </scaling>
    <page-layout>
      <page-height>1583.9</page-height>
      <page-width>1223.92</page-width>
      <page-margins type="even">
        <left-margin>56.6893</left-margin>
        <right-margin>56.6893</right-margin>
        <top-margin>56.6893</top-margin>
        <bottom-margin>113.379</bottom-margin>
        </page-margins>
      <page-margins type="odd">
        <left-margin>56.6893</left-margin>
        <right-margin>56.6893</right-margin>
        <top-margin>56.6893</top-margin>
        <bottom-margin>113.379</bottom-margin>
        </page-margins>
      </page-layout>
    </defaults>
  <credit page="1">
    <credit-words default-x="611.961" default-y="1527.21" font-size="24" justify="center" valign="top">Püha Öö</credit-words>
    </credit>
  <credit page="1">
    <credit-words default-x="1167.23" default-y="1460.21" font-size="12" justify="right" valign="top">F. Gruber</credit-words>
    </credit>
  <credit page="1">
    <credit-words default-x="56.6893" default-y="1460.21" font-size="12" justify="left" valign="top">F. Gruber</credit-words>
    </credit>
  <part-list>
    <score-part id="P1">
      <part-name></part-name>
      <score-instrument id="P1-I3">
        <instrument-name></instrument-name>
        </score-instrument>
      <midi-instrument id="P1-I3">
        <midi-channel>1</midi-channel>
        <midi-program>53</midi-program>
        <volume>78.7402</volume>
        <pan>0</pan>
        </midi-instrument>
      </score-part>
    </part-list>
  <part id="P1">
    <measure number="1" width="264.30">
      <print>
        <system-layout>
          <system-margins>
            <left-margin>2.50</left-margin>
            <right-margin>0.00</right-margin>
            </system-margins>
          <top-system-distance>180.00</top-system-distance>
          </system-layout>
        </print>
      <attributes>
        <divisions>2</divisions>
        <key>
          <fifths>0</fifths>
          <mode>major</mode>
          </key>
        <time>
          <beats>6</beats>
          <beat-type>4</beat-type>
          </time>
        <clef>
          <sign>G</sign>
          <line>2</line>
          </clef>
        </attributes>
      <note default-x="87.85" default-y="-30.00">
        <pitch>
          <step>G</step>
          <octave>4</octave>
          </pitch>
        <duration>3</duration>
        <voice>1</voice>
        <type>quarter</type>
        <dot/>
        <stem>up</stem>
        <notations>
          <slur type="start" number="1"/>
          </notations>
        <lyric number="1">
          <syllabic>begin</syllabic>
          <text>Pü</text>
          </lyric>
        <lyric number="2">
          <syllabic>begin</syllabic>
          <text>Pü</text>
          </lyric>
        <lyric number="3">
          <syllabic>begin</syllabic>
          <text>Pü</text>
          </lyric>
        </note>
      <note default-x="131.43" default-y="-25.00">
        <pitch>
          <step>A</step>
          <octave>4</octave>
          </pitch>
        <duration>1</duration>
        <voice>1</voice>
        <type>eighth</type>
        <stem>up</stem>
        <notations>
          <slur type="stop" number="1"/>
          </notations>
        </note>
      <note default-x="169.98" default-y="-30.00">
        <pitch>
          <step>G</step>
          <octave>4</octave>
          </pitch>
        <duration>2</duration>
        <voice>1</voice>
        <type>quarter</type>
        <stem>up</stem>
        <lyric number="1">
          <syllabic>end</syllabic>
          <text>ha</text>
          </lyric>
        <lyric number="2">
          <syllabic>end</syllabic>
          <text>ha</text>
          </lyric>
        <lyric number="3">
          <syllabic>end</syllabic>
          <text>ha</text>
          </lyric>
        </note>
      <note default-x="205.72" default-y="-40.00">
        <pitch>
          <step>E</step>
          <octave>4</octave>
          </pitch>
        <duration>6</duration>
        <voice>1</voice>
        <type>half</type>
        <dot/>
        <stem>up</stem>
        <lyric number="1">
          <syllabic>single</syllabic>
          <text>öö,</text>
          </lyric>
        <lyric number="2">
          <syllabic>single</syllabic>
          <text>öö,</text>
          </lyric>
        <lyric number="3">
          <syllabic>single</syllabic>
          <text>öö,</text>
          </lyric>
        </note>
      </measure>
    <measure number="2" width="215.35">
      <note default-x="16.60" default-y="-30.00">
        <pitch>
          <step>G</step>
          <octave>4</octave>
          </pitch>
        <duration>3</duration>
        <voice>1</voice>
        <type>quarter</type>
        <dot/>
        <stem>up</stem>
        <lyric number="1">
          <syllabic>begin</syllabic>
          <text>õn</text>
          </lyric>
        <lyric number="2">
          <syllabic>begin</syllabic>
          <text>õn</text>
          </lyric>
        <lyric number="3">
          <syllabic>begin</syllabic>
          <text>õn</text>
          </lyric>
        </note>
      <note default-x="66.13" default-y="-25.00">
        <pitch>
          <step>A</step>
          <octave>4</octave>
          </pitch>
        <duration>1</duration>
        <voice>1</voice>
        <type>eighth</type>
        <stem>up</stem>
        <lyric number="1">
          <syllabic>middle</syllabic>
          <text>nis</text>
          </lyric>
        <lyric number="2">
          <syllabic>middle</syllabic>
          <text>nis</text>
          </lyric>
        <lyric number="3">
          <syllabic>middle</syllabic>
          <text>nis</text>
          </lyric>
        </note>
      <note default-x="108.37" default-y="-30.00">
        <pitch>
          <step>G</step>
          <octave>4</octave>
          </pitch>
        <duration>2</duration>
        <voice>1</voice>
        <type>quarter</type>
        <stem>up</stem>
        <lyric number="1">
          <syllabic>end</syllabic>
          <text>tud</text>
          </lyric>
        <lyric number="2">
          <syllabic>end</syllabic>
          <text>tud</text>
          </lyric>
        <lyric number="3">
          <syllabic>end</syllabic>
          <text>tud</text>
          </lyric>
        </note>
      <note default-x="148.99" default-y="-40.00">
        <pitch>
          <step>E</step>
          <octave>4</octave>
          </pitch>
        <duration>6</duration>
        <voice>1</voice>
        <type>half</type>
        <dot/>
        <stem>up</stem>
        <lyric number="1">
          <syllabic>single</syllabic>
          <text>öö!</text>
          </lyric>
        <lyric number="2">
          <syllabic>single</syllabic>
          <text>öö!</text>
          </lyric>
        <lyric number="3">
          <syllabic>single</syllabic>
          <text>öö!</text>
          </lyric>
        </note>
      </measure>
    <measure number="3" width="191.87">
      <note default-x="27.63" default-y="-10.00">
        <pitch>
          <step>E</step>
          <octave>4</octave>
          </pitch>
        <duration>4</duration>
        <voice>1</voice>
        <type>half</type>
        <stem>up</stem>
        <lyric number="1">
          <syllabic>single</syllabic>
          <text>Kõik</text>
          </lyric>
        <lyric number="2">
          <syllabic>begin</syllabic>
          <text>Ing</text>
          </lyric>
        <lyric number="3">
          <syllabic>single</syllabic>
          <text>Kes</text>
          </lyric>
        </note>
      <note default-x="82.11" default-y="-10.00">
        <pitch>
          <step>D</step>
          <octave>5</octave>
          </pitch>
        <duration>2</duration>
        <voice>1</voice>
        <type>quarter</type>
        <stem>down</stem>
        <lyric number="1">
          <syllabic>single</syllabic>
          <text>on</text>
          </lyric>
        <lyric number="2">
          <syllabic>end</syllabic>
          <text>li</text>
          </lyric>
        <lyric number="3">
          <syllabic>single</syllabic>
          <text>sa</text>
          </lyric>
        </note>
      <note default-x="123.84" default-y="-20.00">
        <pitch>
          <step>B</step>
          <octave>4</octave>
          </pitch>
        <duration>6</duration>
        <voice>1</voice>
        <type>half</type>
        <dot/>
        <stem>down</stem>
        <lyric number="1">
          <syllabic>single</syllabic>
          <text>maas</text>
          </lyric>
        <lyric number="2">
          <syllabic>single</syllabic>
          <text>hääl</text>
          </lyric>
        <lyric number="3">
          <syllabic>single</syllabic>
          <text>meil</text>
          </lyric>
        </note>
      </measure>
    <measure number="4" width="177.52">
      <note default-x="19.02" default-y="-15.00">
        <pitch>
          <step>C</step>
          <octave>5</octave>
          </pitch>
        <duration>4</duration>
        <voice>1</voice>
        <type>half</type>
        <stem>down</stem>
        <lyric number="1">
          <syllabic>begin</syllabic>
          <text>ra</text>
          </lyric>
        <lyric number="2">
          <syllabic>begin</syllabic>
          <text>väl</text>
          </lyric>
        <lyric number="3">
          <syllabic>begin</syllabic>
          <text>il</text>
          </lyric>
        </note>
      <note default-x="70.31" default-y="-15.00">
        <pitch>
          <step>C</step>
          <octave>5</octave>
          </pitch>
        <duration>2</duration>
        <voice>1</voice>
        <type>quarter</type>
        <stem>down</stem>
        <lyric number="1">
          <syllabic>end</syllabic>
          <text>hu</text>
          </lyric>
        <lyric number="2">
          <syllabic>end</syllabic>
          <text>ja</text>
          </lyric>
        <lyric number="3">
          <syllabic>middle</syllabic>
          <text>mu</text>
          </lyric>
        </note>
      <note default-x="113.38" default-y="-30.00">
        <pitch>
          <step>G</step>
          <octave>4</octave>
          </pitch>
        <duration>6</duration>
        <voice>1</voice>
        <type>half</type>
        <dot/>
        <stem>up</stem>
        <lyric number="1">
          <syllabic>single</syllabic>
          <text>sees.</text>
          </lyric>
        <lyric number="2">
          <syllabic>single</syllabic>
          <text>pääl</text>
          </lyric>
        <lyric number="3">
          <syllabic>end</syllabic>
          <text>tan</text>
          </lyric>
        </note>
      </measure>
    <measure number="5" width="258.99">
      <note default-x="20.86" default-y="-25.00">
        <pitch>
          <step>A</step>
          <octave>4</octave>
          </pitch>
        <duration>4</duration>
        <voice>1</voice>
        <type>half</type>
        <stem>up</stem>
        <lyric number="1">
          <syllabic>begin</syllabic>
          <text>Joo</text>
          </lyric>
        <lyric number="2">
          <syllabic>begin</syllabic>
          <text>lau</text>
          </lyric>
        <lyric number="3">
          <syllabic>begin</syllabic>
          <text>I</text>
          </lyric>
        </note>
      <note default-x="79.03" default-y="-25.00">
        <pitch>
          <step>A</step>
          <octave>4</octave>
          </pitch>
        <duration>2</duration>
        <voice>1</voice>
        <type>quarter</type>
        <stem>up</stem>
        <lyric number="1">
          <syllabic>end</syllabic>
          <text>sep</text>
          </lyric>
        <lyric number="2">
          <syllabic>end</syllabic>
          <text>lab</text>
          </lyric>
        <lyric number="3">
          <syllabic>end</syllabic>
          <text>sa</text>
          </lyric>
        </note>
      <note default-x="121.34" default-y="-15.00">
        <pitch>
          <step>C</step>
          <octave>5</octave>
          </pitch>
        <duration>3</duration>
        <voice>1</voice>
        <type>quarter</type>
        <dot/>
        <stem>down</stem>
        <lyric number="1">
          <syllabic>begin</syllabic>
          <text>val</text>
          </lyric>
        <lyric number="2">
          <syllabic>begin</syllabic>
          <text>rõõ</text>
          </lyric>
        <lyric number="3">
          <syllabic>begin</syllabic>
          <text>ar</text>
          </lyric>
        </note>
      <note default-x="172.92" default-y="-20.00">
        <pitch>
          <step>B</step>
          <octave>4</octave>
          </pitch>
        <duration>1</duration>
        <voice>1</voice>
        <type>eighth</type>
        <stem>down</stem>
        <lyric number="1">
          <syllabic>end</syllabic>
          <text>vab</text>
          </lyric>
        <lyric number="2">
          <syllabic>middle</syllabic>
          <text>mus</text>
          </lyric>
        <lyric number="3">
          <syllabic>end</syllabic>
          <text>mu,</text>
          </lyric>
        </note>
      <note default-x="215.09" default-y="-25.00">
        <pitch>
          <step>A</step>
          <octave>4</octave>
          </pitch>
        <duration>2</duration>
        <voice>1</voice>
        <type>quarter</type>
        <stem>up</stem>
        <lyric number="1">
          <syllabic>single</syllabic>
          <text>ja</text>
          </lyric>
        <lyric number="2">
          <syllabic>end</syllabic>
          <text>tes</text>
          </lyric>
        <lyric number="3">
          <syllabic>single</syllabic>
          <text>mis</text>
          </lyric>
        </note>
      </measure>
    <measure number="6" width="302.41">
      <print new-system="yes">
        <system-layout>
          <system-margins>
            <left-margin>2.50</left-margin>
            <right-margin>0.00</right-margin>
            </system-margins>
          <system-distance>154.84</system-distance>
          </system-layout>
        </print>
      <note default-x="71.01" default-y="-30.00">
        <pitch>
          <step>G</step>
          <octave>4</octave>
          </pitch>
        <duration>3</duration>
        <voice>1</voice>
        <type>quarter</type>
        <dot/>
        <stem>up</stem>
        <lyric number="1">
          <syllabic>begin</syllabic>
          <text>Ma</text>
          </lyric>
        <lyric number="2">
          <syllabic>begin</syllabic>
          <text>Hal</text>
          </lyric>
        <lyric number="3">
          <syllabic>begin</syllabic>
          <text>õn</text>
          </lyric>
        </note>
      <note default-x="130.41" default-y="-25.00">
        <pitch>
          <step>A</step>
          <octave>4</octave>
          </pitch>
        <duration>1</duration>
        <voice>1</voice>
        <type>eighth</type>
        <stem>up</stem>
        <lyric number="1">
          <syllabic>middle</syllabic>
          <text>ri</text>
          </lyric>
        <lyric number="2">
          <syllabic>middle</syllabic>
          <text>le</text>
          </lyric>
        <lyric number="3">
          <syllabic>middle</syllabic>
          <text>nis</text>
          </lyric>
        </note>
      <note default-x="174.44" default-y="-30.00">
        <pitch>
          <step>G</step>
          <octave>4</octave>
          </pitch>
        <duration>2</duration>
        <voice>1</voice>
        <type>quarter</type>
        <stem>up</stem>
        <lyric number="1">
          <syllabic>end</syllabic>
          <text>al</text>
          </lyric>
        <lyric number="2">
          <syllabic>middle</syllabic>
          <text>luu</text>
          </lyric>
        <lyric number="3">
          <syllabic>end</syllabic>
          <text>tust</text>
          </lyric>
        </note>
      <note default-x="223.15" default-y="-40.00">
        <pitch>
          <step>E</step>
          <octave>4</octave>
          </pitch>
        <duration>6</duration>
        <voice>1</voice>
        <type>half</type>
        <dot/>
        <stem>up</stem>
        <lyric number="1">
          <syllabic>single</syllabic>
          <text>sääl</text>
          </lyric>
        <lyric number="2">
          <syllabic>end</syllabic>
          <text>ja!</text>
          </lyric>
        <lyric number="3">
          <syllabic>single</syllabic>
          <text>toob,</text>
          </lyric>
        </note>
      </measure>
    <measure number="7" width="275.16">
      <note default-x="19.65" default-y="-25.00">
        <pitch>
          <step>A</step>
          <octave>4</octave>
          </pitch>
        <duration>4</duration>
        <voice>1</voice>
        <type>half</type>
        <stem>up</stem>
        <lyric number="1">
          <syllabic>begin</syllabic>
          <text>hin</text>
          </lyric>
        <lyric number="2">
          <syllabic>begin</syllabic>
          <text>An</text>
          </lyric>
        <lyric number="3">
          <syllabic>begin</syllabic>
          <text>ra</text>
          </lyric>
        </note>
      <note default-x="83.32" default-y="-25.00">
        <pitch>
          <step>A</step>
          <octave>4</octave>
          </pitch>
        <duration>2</duration>
        <voice>1</voice>
        <type>quarter</type>
        <stem>up</stem>
        <lyric number="1">
          <syllabic>end</syllabic>
          <text>gab</text>
          </lyric>
        <lyric number="2">
          <syllabic>end</syllabic>
          <text>nab</text>
          </lyric>
        <lyric number="3">
          <syllabic>middle</syllabic>
          <text>hu</text>
          </lyric>
        </note>
      <note default-x="129.62" default-y="-15.00">
        <pitch>
          <step>C</step>
          <octave>5</octave>
          </pitch>
        <duration>3</duration>
        <voice>1</voice>
        <type>quarter</type>
        <dot/>
        <stem>down</stem>
        <lyric number="1">
          <syllabic>begin</syllabic>
          <text>lap</text>
          </lyric>
        <lyric number="2">
          <syllabic>begin</syllabic>
          <text>tea</text>
          </lyric>
        <lyric number="3">
          <syllabic>middle</syllabic>
          <text>põl</text>
          </lyric>
        </note>
      <note default-x="186.08" default-y="-20.00">
        <pitch>
          <step>B</step>
          <octave>4</octave>
          </pitch>
        <duration>1</duration>
        <voice>1</voice>
        <type>eighth</type>
        <stem>down</stem>
        <lyric number="1">
          <syllabic>middle</syllabic>
          <text>su</text>
          </lyric>
        <lyric number="2">
          <syllabic>end</syllabic>
          <text>da</text>
          </lyric>
        <lyric number="3">
          <syllabic>end</syllabic>
          <text>ve</text>
          </lyric>
        </note>
      <note default-x="227.26" default-y="-25.00">
        <pitch>
          <step>A</step>
          <octave>4</octave>
          </pitch>
        <duration>2</duration>
        <voice>1</voice>
        <type>quarter</type>
        <stem>up</stem>
        <lyric number="1">
          <syllabic>end</syllabic>
          <text>ke</text>
          </lyric>
        <lyric number="2">
          <syllabic>single</syllabic>
          <text>nüüd</text>
          </lyric>
        <lyric number="3">
          <syllabic>begin</syllabic>
          <text>maa</text>
          </lyric>
        </note>
      </measure>
    <measure number="8" width="242.12">
      <note default-x="19.69" default-y="-30.00">
        <pitch>
          <step>G</step>
          <octave>4</octave>
          </pitch>
        <duration>3</duration>
        <voice>1</voice>
        <type>quarter</type>
        <dot/>
        <stem>up</stem>
        <lyric number="1">
          <syllabic>begin</syllabic>
          <text>põl</text>
          </lyric>
        <lyric number="2">
          <syllabic>begin</syllabic>
          <text>kar</text>
          </lyric>
        <lyric number="3">
          <syllabic>middle</syllabic>
          <text>il</text>
          </lyric>
        </note>
      <note default-x="77.78" default-y="-25.00">
        <pitch>
          <step>A</step>
          <octave>4</octave>
          </pitch>
        <duration>1</duration>
        <voice>1</voice>
        <type>eighth</type>
        <stem>up</stem>
        <lyric number="1">
          <syllabic>middle</syllabic>
          <text>ve</text>
          </lyric>
        <lyric number="2">
          <syllabic>middle</syllabic>
          <text>jas</text>
          </lyric>
        <lyric number="3">
          <syllabic>middle</syllabic>
          <text>ma</text>
          </lyric>
        </note>
      <note default-x="116.92" default-y="-30.00">
        <pitch>
          <step>G</step>
          <octave>4</octave>
          </pitch>
        <duration>2</duration>
        <voice>1</voice>
        <type>quarter</type>
        <stem>up</stem>
        <lyric number="1">
          <syllabic>end</syllabic>
          <text>de</text>
          </lyric>
        <lyric number="2">
          <syllabic>end</syllabic>
          <text>tel</text>
          </lyric>
        <lyric number="3">
          <syllabic>end</syllabic>
          <text>le</text>
          </lyric>
        </note>
      <note default-x="164.56" default-y="-40.00">
        <pitch>
          <step>E</step>
          <octave>4</octave>
          </pitch>
        <duration>6</duration>
        <voice>1</voice>
        <type>half</type>
        <dot/>
        <stem>up</stem>
        <lyric number="1">
          <syllabic>single</syllabic>
          <text>pääl.</text>
          </lyric>
        <lyric number="2">
          <syllabic>single</syllabic>
          <text>ka:</text>
          </lyric>
        <lyric number="3">
          <syllabic>single</syllabic>
          <text>loob.</text>
          </lyric>
        </note>
      </measure>
    <measure number="9" width="288.34">
      <note default-x="25.74" default-y="-10.00">
        <pitch>
          <step>D</step>
          <octave>5</octave>
          </pitch>
        <duration>4</duration>
        <voice>1</voice>
        <type>half</type>
        <stem>down</stem>
        <lyric number="1">
          <syllabic>begin</syllabic>
          <text>Ma</text>
          </lyric>
        <lyric number="2">
          <syllabic>begin</syllabic>
          <text>Kris</text>
          </lyric>
        <lyric number="3">
          <syllabic>begin</syllabic>
          <text>Laul</text>
          </lyric>
        </note>
      <note default-x="92.68" default-y="-10.00">
        <pitch>
          <step>D</step>
          <octave>5</octave>
          </pitch>
        <duration>2</duration>
        <voice>1</voice>
        <type>quarter</type>
        <stem>down</stem>
        <lyric number="1">
          <syllabic>end</syllabic>
          <text>ga,</text>
          </lyric>
        <lyric number="2">
          <syllabic>end</syllabic>
          <text>tus</text>
          </lyric>
        <lyric number="3">
          <syllabic>end</syllabic>
          <text>gem</text>
          </lyric>
        </note>
      <note default-x="141.37" default-y="0.00">
        <pitch>
          <step>F</step>
          <octave>5</octave>
          </pitch>
        <duration>3</duration>
        <voice>1</voice>
        <type>quarter</type>
        <dot/>
        <stem>down</stem>
        <lyric number="1">
          <syllabic>begin</syllabic>
          <text>pa</text>
          </lyric>
        <lyric number="2">
          <syllabic>begin</syllabic>
          <text>sün</text>
          </lyric>
        <lyric number="3">
          <syllabic>begin</syllabic>
          <text>Hal</text>
          </lyric>
        </note>
      <note default-x="200.73" default-y="-10.00">
        <pitch>
          <step>D</step>
          <octave>5</octave>
          </pitch>
        <duration>1</duration>
        <voice>1</voice>
        <type>eighth</type>
        <stem>down</stem>
        <lyric number="1">
          <syllabic>middle</syllabic>
          <text>tus</text>
          </lyric>
        <lyric number="2">
          <syllabic>middle</syllabic>
          <text>di</text>
          </lyric>
        <lyric number="3">
          <syllabic>middle</syllabic>
          <text>le</text>
          </lyric>
        </note>
      <note default-x="238.06" default-y="-20.00">
        <pitch>
          <step>B</step>
          <octave>4</octave>
          </pitch>
        <duration>2</duration>
        <voice>1</voice>
        <type>quarter</type>
        <stem>down</stem>
        <lyric number="1">
          <syllabic>end</syllabic>
          <text>te</text>
          </lyric>
        <lyric number="2">
          <syllabic>end</syllabic>
          <text>nud</text>
          </lyric>
        <lyric number="3">
          <syllabic>middle</syllabic>
          <text>lu</text>
          </lyric>
        </note>
      </measure>
    <measure number="10" width="350.05">
      <print new-system="yes">
        <system-layout>
          <system-margins>
            <left-margin>2.50</left-margin>
            <right-margin>0.00</right-margin>
            </system-margins>
          <system-distance>154.84</system-distance>
          </system-layout>
        </print>
      <note default-x="82.01" default-y="-15.00">
        <pitch>
          <step>C</step>
          <octave>5</octave>
          </pitch>
        <duration>6</duration>
        <voice>1</voice>
        <type>half</type>
        <dot/>
        <stem>down</stem>
        <notations>
          <slur type="start" number="1"/>
          </notations>
        <lyric number="1">
          <syllabic>single</syllabic>
          <text>rõõm!</text>
          </lyric>
        <lyric number="2">
          <syllabic>single</syllabic>
          <text>teil!</text>
          </lyric>
        <lyric number="3">
          <syllabic>end</syllabic>
          <text>ja,</text>
          </lyric>
        </note>
      <note default-x="196.23" default-y="-5.00">
        <pitch>
          <step>E</step>
          <octave>5</octave>
          </pitch>
        <duration>4</duration>
        <voice>1</voice>
        <type>half</type>
        <stem>down</stem>
        <notations>
          <slur type="stop" number="1"/>
          </notations>
        </note>
      <note>
        <rest/>
        <duration>2</duration>
        <voice>1</voice>
        <type>quarter</type>
        </note>
      </measure>
    <measure number="11" width="451.50">
      <note default-x="24.50" default-y="-15.00">
        <pitch>
          <step>C</step>
          <octave>5</octave>
          </pitch>
        <duration>3</duration>
        <voice>1</voice>
        <type>quarter</type>
        <dot/>
        <stem>down</stem>
        <notations>
          <slur type="start" number="1"/>
          </notations>
        <lyric number="1">
          <syllabic>begin</syllabic>
          <text>Ma</text>
          </lyric>
        <lyric number="2">
          <syllabic>begin</syllabic>
          <text>Kris</text>
          </lyric>
        <lyric number="3">
          <syllabic>begin</syllabic>
          <text>laul</text>
          </lyric>
        </note>
      <note default-x="115.60" default-y="-30.00">
        <pitch>
          <step>G</step>
          <octave>4</octave>
          </pitch>
        <duration>1</duration>
        <voice>1</voice>
        <type>eighth</type>
        <stem>up</stem>
        <notations>
          <slur type="stop" number="1"/>
          </notations>
        </note>
      <note default-x="162.69" default-y="-40.00">
        <pitch>
          <step>E</step>
          <octave>4</octave>
          </pitch>
        <duration>2</duration>
        <voice>1</voice>
        <type>quarter</type>
        <stem>up</stem>
        <lyric number="1">
          <syllabic>end</syllabic>
          <text>ga,</text>
          </lyric>
        <lyric number="2">
          <syllabic>end</syllabic>
          <text>tus</text>
          </lyric>
        <lyric number="3">
          <syllabic>end</syllabic>
          <text>gem</text>
          </lyric>
        </note>
      <note default-x="237.40" default-y="-30.00">
        <pitch>
          <step>G</step>
          <octave>4</octave>
          </pitch>
        <duration>3</duration>
        <voice>1</voice>
        <type>quarter</type>
        <dot/>
        <stem>up</stem>
        <lyric number="1">
          <syllabic>begin</syllabic>
          <text>pa</text>
          </lyric>
        <lyric number="2">
          <syllabic>begin</syllabic>
          <text>sün</text>
          </lyric>
        <lyric number="3">
          <syllabic>begin</syllabic>
          <text>Hal</text>
          </lyric>
        </note>
      <note default-x="328.50" default-y="-35.00">
        <pitch>
          <step>F</step>
          <octave>4</octave>
          </pitch>
        <duration>1</duration>
        <voice>1</voice>
        <type>eighth</type>
        <stem>up</stem>
        <lyric number="1">
          <syllabic>middle</syllabic>
          <text>tus</text>
          </lyric>
        <lyric number="2">
          <syllabic>middle</syllabic>
          <text>di</text>
          </lyric>
        <lyric number="3">
          <syllabic>middle</syllabic>
          <text>le</text>
          </lyric>
        </note>
      <note default-x="375.19" default-y="-45.00">
        <pitch>
          <step>D</step>
          <octave>4</octave>
          </pitch>
        <duration>2</duration>
        <voice>1</voice>
        <type>quarter</type>
        <stem>up</stem>
        <lyric number="1">
          <syllabic>end</syllabic>
          <text>te</text>
          </lyric>
        <lyric number="2">
          <syllabic>end</syllabic>
          <text>nud</text>
          </lyric>
        <lyric number="3">
          <syllabic>middle</syllabic>
          <text>luu</text>
          </lyric>
        </note>
      </measure>
    <measure number="12" width="306.50">
      <note default-x="32.46" default-y="-50.00">
        <pitch>
          <step>C</step>
          <octave>4</octave>
          </pitch>
        <duration>6</duration>
        <voice>1</voice>
        <type>half</type>
        <dot/>
        <stem>up</stem>
        <notations>
          <slur type="start" number="1"/>
          </notations>
        <lyric number="1">
          <syllabic>single</syllabic>
          <text>rõõm!</text>
          </lyric>
        <lyric number="2">
          <syllabic>single</syllabic>
          <text>teil!</text>
          </lyric>
        <lyric number="3">
          <syllabic>end</syllabic>
          <text>ja!</text>
          </lyric>
        </note>
      <note default-x="146.68" default-y="-50.00">
        <pitch>
          <step>C</step>
          <octave>4</octave>
          </pitch>
        <duration>4</duration>
        <voice>1</voice>
        <type>half</type>
        <stem>up</stem>
        <notations>
          <slur type="stop" number="1"/>
          </notations>
        </note>
      <note>
        <rest/>
        <duration>2</duration>
        <voice>1</voice>
        <type>quarter</type>
        </note>
      <barline location="right">
        <bar-style>light-heavy</bar-style>
        </barline>
      </measure>
    </part>
  </score-partwise>
